# Blender v2.79 (sub 0) OBJ File: 'untitled.blend1'
# www.blender.org
mtllib satRing.mtl
o Sphere
v 0.061711 0.004302 -1.256153
v 0.103564 -0.004268 -2.011706
v 0.123273 0.004302 -1.251612
v 0.202424 -0.004268 -2.004413
v 0.184538 0.004302 -1.244055
v 0.300808 -0.004268 -1.992279
v 0.245358 0.004302 -1.233502
v 0.398477 -0.004268 -1.975331
v 0.305588 0.004302 -1.219977
v 0.495197 -0.004268 -1.953612
v 0.365081 0.004302 -1.203513
v 0.590735 -0.004268 -1.927173
v 0.423695 0.004302 -1.184150
v 0.684860 -0.004268 -1.896078
v 0.481288 0.004302 -1.161933
v 0.777347 -0.004268 -1.860402
v 0.537722 0.004302 -1.136918
v 0.867971 -0.004268 -1.820231
v 0.592860 0.004302 -1.109164
v 0.956516 -0.004268 -1.775662
v 0.646570 0.004302 -1.078738
v 1.042766 -0.004268 -1.726802
v 0.698722 0.004302 -1.045713
v 1.126516 -0.004268 -1.673768
v 0.749191 0.004302 -1.010168
v 1.207562 -0.004268 -1.616689
v 0.797855 0.004302 -0.972190
v 1.285709 -0.004268 -1.555702
v 0.844597 0.004302 -0.931870
v 1.360771 -0.004268 -1.490954
v 0.889305 0.004302 -0.889305
v 1.432564 -0.004268 -1.422600
v 0.931870 0.004302 -0.844598
v 1.500918 -0.004268 -1.350807
v 0.972190 0.004302 -0.797856
v 1.565666 -0.004268 -1.275746
v 1.010167 0.004302 -0.749192
v 1.626653 -0.004268 -1.197598
v 1.045712 0.004302 -0.698723
v 1.683733 -0.004268 -1.116552
v 1.078737 0.004302 -0.646571
v 1.736766 -0.004268 -1.032802
v 1.109163 0.004302 -0.592861
v 1.785627 -0.004268 -0.946552
v 1.136917 0.004302 -0.537722
v 1.830196 -0.004268 -0.858007
v 1.161932 0.004302 -0.481289
v 1.870367 -0.004268 -0.767383
v 1.184149 0.004302 -0.423696
v 1.906043 -0.004268 -0.674897
v 1.203512 0.004302 -0.365082
v 1.937138 -0.004268 -0.580771
v 1.219976 0.004302 -0.305589
v 1.963577 -0.004268 -0.485233
v 1.233501 0.004302 -0.245359
v 1.985297 -0.004268 -0.388513
v 1.244054 0.004302 -0.184539
v 2.002244 -0.004268 -0.290843
v 1.251611 0.004302 -0.123273
v 2.014378 -0.004268 -0.192460
v 1.256152 0.004302 -0.061711
v 2.021671 -0.004268 -0.093600
v 1.257667 0.004302 -0.000000
v 2.024104 -0.004268 0.005499
v 1.256152 0.004302 0.061710
v 2.021671 -0.004268 0.104598
v 1.251611 0.004302 0.123272
v 2.014378 -0.004268 0.203458
v 1.244054 0.004302 0.184538
v 2.002244 -0.004268 0.301841
v 1.233501 0.004302 0.245358
v 1.985297 -0.004268 0.399511
v 1.219976 0.004302 0.305588
v 1.963578 -0.004268 0.496231
v 1.203512 0.004302 0.365081
v 1.937139 -0.004268 0.591769
v 1.184148 0.004302 0.423695
v 1.906044 -0.004268 0.685894
v 1.161932 0.004302 0.481288
v 1.870368 -0.004268 0.778381
v 1.136917 0.004302 0.537721
v 1.830197 -0.004268 0.869006
v 1.109163 0.004302 0.592860
v 1.785628 -0.004268 0.957550
v 1.078737 0.004302 0.646570
v 1.736767 -0.004268 1.043800
v 1.045712 0.004302 0.698722
v 1.683734 -0.004268 1.127550
v 1.010167 0.004302 0.749191
v 1.626654 -0.004268 1.208596
v 0.972189 0.004302 0.797855
v 1.565668 -0.004268 1.286744
v 0.931869 0.004302 0.844597
v 1.500919 -0.004268 1.361805
v 0.889304 0.004302 0.889304
v 1.432566 -0.004268 1.433599
v 0.844597 0.004302 0.931869
v 1.360772 -0.004268 1.501952
v 0.797855 0.004302 0.972189
v 1.285711 -0.004268 1.566700
v 0.749191 0.004302 1.010167
v 1.207563 -0.004268 1.627688
v 0.698722 0.004302 1.045711
v 1.126517 -0.004268 1.684767
v 0.646569 0.004302 1.078736
v 1.042768 -0.004268 1.737801
v 0.592860 0.004302 1.109163
v 0.956517 -0.004268 1.786661
v 0.537721 0.004302 1.136917
v 0.867972 -0.004268 1.831231
v 0.481288 0.004302 1.161932
v 0.777348 -0.004268 1.871402
v 0.423695 0.004302 1.184148
v 0.684861 -0.004268 1.907078
v 0.365081 0.004302 1.203511
v 0.590736 -0.004268 1.938173
v 0.305588 0.004302 1.219975
v 0.495198 -0.004268 1.964612
v 0.245358 0.004302 1.233500
v 0.398477 -0.004268 1.986331
v 0.184538 0.004302 1.244054
v 0.300808 -0.004268 2.003278
v 0.123272 0.004302 1.251610
v 0.202425 -0.004268 2.015413
v 0.061710 0.004302 1.256151
v 0.103564 -0.004268 2.022705
v -0.000001 0.004302 1.257666
v 0.004465 -0.004268 2.025138
v -0.061711 0.004302 1.256151
v -0.094634 -0.004268 2.022705
v -0.123273 0.004302 1.251610
v -0.193494 -0.004268 2.015413
v -0.184539 0.004302 1.244054
v -0.291877 -0.004268 2.003278
v -0.245359 0.004302 1.233500
v -0.389547 -0.004268 1.986331
v -0.305589 0.004302 1.219975
v -0.486267 -0.004268 1.964612
v -0.365082 0.004302 1.203511
v -0.581805 -0.004268 1.938172
v -0.423696 0.004302 1.184148
v -0.675931 -0.004268 1.907078
v -0.481289 0.004302 1.161932
v -0.768417 -0.004268 1.871402
v -0.537722 0.004302 1.136917
v -0.859042 -0.004268 1.831231
v -0.592860 0.004302 1.109162
v -0.947586 -0.004268 1.786661
v -0.646570 0.004302 1.078736
v -1.033837 -0.004268 1.737801
v -0.698723 0.004302 1.045711
v -1.117586 -0.004268 1.684767
v -0.749192 0.004302 1.010167
v -1.198632 -0.004268 1.627687
v -0.797856 0.004302 0.972189
v -1.276780 -0.004268 1.566700
v -0.844598 0.004302 0.931869
v -1.351841 -0.004268 1.501952
v -0.889305 0.004302 0.889304
v -1.423635 -0.004268 1.433599
v -0.931870 0.004302 0.844597
v -1.491988 -0.004268 1.361805
v -0.972190 0.004302 0.797854
v -1.556736 -0.004268 1.286744
v -1.010168 0.004302 0.749190
v -1.617723 -0.004268 1.208596
v -1.045712 0.004302 0.698721
v -1.674802 -0.004268 1.127550
v -1.078737 0.004302 0.646569
v -1.727836 -0.004268 1.043800
v -1.109163 0.004302 0.592859
v -1.776696 -0.004268 0.957549
v -1.136918 0.004302 0.537721
v -1.821265 -0.004268 0.869005
v -1.161933 0.004302 0.481287
v -1.861436 -0.004268 0.778381
v -1.184149 0.004302 0.423694
v -1.897112 -0.004268 0.685894
v -1.203512 0.004302 0.365081
v -1.928207 -0.004268 0.591769
v -1.219976 0.004302 0.305587
v -1.954646 -0.004268 0.496231
v -1.233501 0.004302 0.245358
v -1.976365 -0.004268 0.399510
v -1.244055 0.004302 0.184537
v -1.993312 -0.004268 0.301841
v -1.251611 0.004302 0.123272
v -2.005447 -0.004268 0.203458
v -1.256152 0.004302 0.061710
v -2.012739 -0.004268 0.104598
v -1.257667 0.004302 -0.000001
v -2.015171 -0.004268 0.005499
v -1.256152 0.004302 -0.061712
v -2.012739 -0.004268 -0.093600
v -1.251611 0.004302 -0.123274
v -2.005446 -0.004268 -0.192460
v -1.244055 0.004302 -0.184539
v -1.993312 -0.004268 -0.290844
v -1.233501 0.004302 -0.245360
v -1.976364 -0.004268 -0.388513
v -1.219976 0.004302 -0.305589
v -1.954645 -0.004268 -0.485233
v -1.203512 0.004302 -0.365082
v -1.928206 -0.004268 -0.580771
v -1.184149 0.004302 -0.423696
v -1.897111 -0.004268 -0.674896
v -1.161933 0.004302 -0.481289
v -1.861435 -0.004268 -0.767383
v -1.136917 0.004302 -0.537723
v -1.821264 -0.004268 -0.858007
v -1.109163 0.004302 -0.592861
v -1.776694 -0.004268 -0.946551
v -1.078737 0.004302 -0.646571
v -1.727834 -0.004268 -1.032802
v -1.045712 0.004302 -0.698723
v -1.674800 -0.004268 -1.116551
v -1.010167 0.004302 -0.749192
v -1.617721 -0.004268 -1.197597
v -0.972190 0.004302 -0.797856
v -1.556734 -0.004268 -1.275745
v -0.931870 0.004302 -0.844598
v -1.491986 -0.004268 -1.350806
v -0.857494 0.003683 -0.918233
v -1.339598 -0.004580 -1.499826
v -0.857793 0.004302 -0.920082
v -1.380036 -0.004268 -1.469247
v -0.698722 0.004302 -1.045712
v -1.117584 -0.004268 -1.673767
v -0.646570 0.004302 -1.078737
v -1.033834 -0.004268 -1.726801
v -0.592860 0.004302 -1.109164
v -0.947584 -0.004268 -1.775661
v -0.537722 0.004302 -1.136918
v -0.859040 -0.004268 -1.820230
v -0.481288 0.004302 -1.161933
v -0.768415 -0.004268 -1.860401
v -0.423695 0.004302 -1.184149
v -0.675929 -0.004268 -1.896077
v -0.365081 0.004302 -1.203513
v -0.581803 -0.004268 -1.927172
v -0.305588 0.004302 -1.219977
v -0.486266 -0.004268 -1.953611
v -0.245359 0.004302 -1.233501
v -0.389546 -0.004268 -1.975330
v -0.184538 0.004302 -1.244055
v -0.291876 -0.004268 -1.992277
v -0.123273 0.004302 -1.251611
v -0.193493 -0.004268 -2.004411
v -0.061711 0.004302 -1.256152
v -0.094633 -0.004268 -2.011704
v 0.000000 0.004302 -1.257667
v 0.004466 -0.004268 -2.014136
vt 0.996379 0.931653
vt -0.001041 0.826732
vt 0.996521 0.923744
vt -0.001017 0.819831
vt 0.996651 0.915620
vt -0.000999 0.812868
vt 0.996768 0.907302
vt -0.000987 0.805860
vt 0.996873 0.898808
vt -0.000979 0.798825
vt 0.996965 0.890161
vt -0.000736 0.757023
vt 0.997043 0.881379
vt -0.000689 0.750609
vt 0.997108 0.872486
vt -0.000646 0.744060
vt 0.997159 0.863501
vt -0.000609 0.737391
vt 0.997197 0.854447
vt -0.000578 0.730618
vt 0.997221 0.845346
vt -0.000551 0.723759
vt 0.997231 0.836219
vt -0.000530 0.716828
vt 0.997227 0.827089
vt -0.000515 0.709844
vt 0.997209 0.817977
vt -0.000892 0.678674
vt 0.997178 0.808905
vt -0.000871 0.671746
vt 0.997133 0.799896
vt -0.000855 0.664763
vt 0.997074 0.790970
vt -0.000845 0.657742
vt 0.997002 0.782150
vt -0.000840 0.650701
vt 0.996916 0.773457
vt -0.000841 0.643655
vt 0.996818 0.764911
vt -0.000847 0.636623
vt 0.996706 0.756534
vt -0.000858 0.629620
vt 0.996582 0.748345
vt -0.000876 0.622664
vt 0.996446 0.740364
vt -0.000898 0.615772
vt 0.996297 0.732610
vt -0.000926 0.608961
vt 0.996137 0.725102
vt -0.000959 0.602245
vt 0.996431 0.714258
vt -0.000998 0.595643
vt 0.996703 0.711843
vt -0.000928 0.581585
vt 0.996971 0.708999
vt -0.000823 0.579062
vt 0.997236 0.705732
vt -0.000720 0.576219
vt 0.997494 0.702051
vt -0.000619 0.573064
vt 0.997747 0.697965
vt -0.000521 0.569603
vt 0.997993 0.693482
vt -0.000426 0.565845
vt 0.998233 0.688615
vt -0.000333 0.561799
vt 0.998464 0.683374
vt -0.000244 0.557475
vt 0.998688 0.677773
vt -0.000159 0.552883
vt 0.998903 0.671824
vt -0.000077 0.548034
vt 0.999108 0.665543
vt 0.000001 0.542940
vt 0.999304 0.658944
vt 0.000076 0.537614
vt 0.999490 0.652043
vt 0.000145 0.532068
vt 0.999664 0.644857
vt 0.000211 0.526315
vt 0.999828 0.637404
vt 0.000272 0.520369
vt 0.999981 0.629700
vt 0.000373 0.499543
vt 0.999844 0.616640
vt 0.000425 0.493256
vt 0.999972 0.608493
vt 0.000471 0.486820
vt 1.000088 0.600153
vt 0.000512 0.480251
vt 1.000191 0.591641
vt 0.000549 0.473564
vt 1.000281 0.582977
vt 0.000580 0.466777
vt 1.000358 0.574182
vt 0.000605 0.459906
vt 1.000421 0.565277
vt 0.000625 0.452966
vt 1.000471 0.556283
vt 0.000640 0.445974
vt 1.000507 0.547223
vt 1.000529 0.538117
vt 0.000650 0.438948
vt 1.000538 0.528989
vt 0.000653 0.431904
vt 1.000532 0.519859
vt 0.000652 0.424860
vt 1.000513 0.510751
vt 0.000843 0.413481
vt 1.000570 0.492062
vt 0.000830 0.406486
vt 1.000523 0.483061
vt 0.000812 0.399541
vt 1.000463 0.474147
vt 0.000788 0.392664
vt 1.000389 0.465340
vt 0.000759 0.385869
vt 1.000302 0.456663
vt 0.000725 0.379174
vt 1.000202 0.448135
vt 0.000686 0.372595
vt 1.000089 0.439778
vt 0.000641 0.366148
vt 0.999963 0.431612
vt 0.000592 0.359848
vt 0.999825 0.423656
vt 0.000537 0.353711
vt 0.999532 0.410064
vt 0.000600 0.333201
vt 0.999536 0.400932
vt 0.000536 0.327432
vt 0.999525 0.391808
vt 0.000468 0.321869
vt 0.999501 0.382713
vt 0.000396 0.316525
vt 0.999463 0.373669
vt 0.000319 0.311412
vt 0.999411 0.364699
vt 0.000238 0.306544
vt 0.999345 0.355822
vt 0.000154 0.301931
vt 0.999267 0.347061
vt 0.000066 0.297585
vt 0.999106 0.331118
vt 0.000256 0.281223
vt 0.999103 0.321987
vt 0.000227 0.274440
vt 0.999086 0.312873
vt 0.000192 0.267760
vt 0.999055 0.303799
vt 0.000151 0.261198
vt 0.999011 0.294786
vt 0.000106 0.254770
vt 0.998953 0.285856
vt 0.000056 0.248491
vt 0.998881 0.277030
vt 0.000001 0.242376
vt 0.998796 0.268330
vt -0.000059 0.236441
vt 0.998698 0.259776
vt -0.000123 0.230699
vt 0.998587 0.251390
vt -0.000192 0.225164
vt 0.998488 0.243764
vt -0.000215 0.195413
vt 0.998392 0.230590
vt -0.000147 0.189783
vt 0.998483 0.221935
vt -0.000083 0.183951
vt 0.998560 0.213146
vt -0.000024 0.177933
vt 0.998624 0.204247
vt 0.000030 0.171742
vt 0.998675 0.195258
vt 0.000080 0.165393
vt 0.998712 0.186201
vt 0.000124 0.158902
vt 0.998735 0.177098
vt 0.000163 0.152284
vt 0.998744 0.167970
vt 0.000198 0.145556
vt 0.998740 0.158840
vt 0.000227 0.138733
vt 0.998721 0.149730
vt 0.000250 0.131832
vt 0.998689 0.140661
vt 0.000268 0.124869
vt 0.998643 0.131656
vt 0.000281 0.117862
vt 0.998584 0.122736
vt 0.000288 0.110827
vt 0.998511 0.113922
vt 0.000289 0.103781
vt 0.998425 0.105237
vt 0.000285 0.096741
vt 0.998325 0.096700
vt 0.000276 0.089724
vt 0.998213 0.088332
vt 0.000261 0.082748
vt 0.998088 0.080154
vt 0.000241 0.075828
vt 0.997951 0.072185
vt 0.000215 0.068981
vt 0.997802 0.064445
vt 0.000184 0.062225
vt 0.997642 0.056952
vt 0.000148 0.055574
vt 0.997470 0.049723
vt 0.000106 0.049046
vt 0.997287 0.042778
vt 0.000060 0.042656
vt 0.997094 0.036131
vt 0.000008 0.036419
vt 0.996891 0.029800
vt -0.000048 0.030351
vt 0.996679 0.023799
vt -0.000109 0.024465
vt 0.996458 0.018143
vt -0.000175 0.018777
vt 0.996229 0.012846
vt -0.000245 0.013300
vt 0.995992 0.007921
vt -0.000397 0.003030
vt 0.995747 0.003378
vt -0.000983 0.946312
vt 0.993880 1.003550
vt 0.993621 1.007184
vt -0.000980 0.932224
vt 0.994134 0.999509
vt -0.000988 0.925196
vt 0.994381 0.995072
vt -0.001000 0.918201
vt 0.994579 0.989927
vt -0.001018 0.911256
vt 0.994854 0.985050
vt -0.001042 0.904378
vt 0.995078 0.979489
vt -0.001071 0.897583
vt 0.995294 0.973580
vt -0.001105 0.890887
vt 0.995501 0.967336
vt -0.001144 0.884308
vt 0.995698 0.960773
vt -0.001189 0.877860
vt 0.995885 0.953906
vt -0.001238 0.871559
vt 0.996061 0.946752
vt -0.001104 0.840284
vt 0.996226 0.939329
vt -0.001069 0.833555
vt -0.000319 0.008046
vt -0.000979 0.939269
vn 0.0003 0.9999 -0.0113
vn 0.0008 0.9999 -0.0113
vn 0.0014 0.9999 -0.0112
vn 0.0019 0.9999 -0.0112
vn 0.0025 0.9999 -0.0110
vn 0.0030 0.9999 -0.0109
vn 0.0035 0.9999 -0.0107
vn 0.0041 0.9999 -0.0105
vn 0.0046 0.9999 -0.0103
vn 0.0051 0.9999 -0.0101
vn 0.0056 0.9999 -0.0098
vn 0.0060 0.9999 -0.0095
vn 0.0065 0.9999 -0.0092
vn 0.0069 0.9999 -0.0089
vn 0.0074 0.9999 -0.0085
vn 0.0078 0.9999 -0.0082
vn 0.0082 0.9999 -0.0078
vn 0.0085 0.9999 -0.0074
vn 0.0089 0.9999 -0.0069
vn 0.0092 0.9999 -0.0065
vn 0.0095 0.9999 -0.0060
vn 0.0098 0.9999 -0.0055
vn 0.0100 0.9999 -0.0050
vn 0.0103 0.9999 -0.0045
vn 0.0105 0.9999 -0.0040
vn 0.0106 0.9999 -0.0035
vn 0.0108 0.9999 -0.0030
vn 0.0109 0.9999 -0.0025
vn 0.0110 0.9999 -0.0019
vn 0.0111 0.9999 -0.0014
vn 0.0112 0.9999 -0.0008
vn 0.0112 0.9999 -0.0003
vn 0.0112 0.9999 0.0003
vn 0.0111 0.9999 0.0008
vn 0.0111 0.9999 0.0014
vn 0.0110 0.9999 0.0019
vn 0.0109 0.9999 0.0024
vn 0.0108 0.9999 0.0030
vn 0.0106 0.9999 0.0035
vn 0.0104 0.9999 0.0040
vn 0.0102 0.9999 0.0045
vn 0.0100 0.9999 0.0050
vn 0.0097 0.9999 0.0055
vn 0.0094 0.9999 0.0060
vn 0.0091 0.9999 0.0064
vn 0.0088 0.9999 0.0069
vn 0.0084 0.9999 0.0073
vn 0.0081 0.9999 0.0077
vn 0.0077 0.9999 0.0081
vn 0.0073 0.9999 0.0084
vn 0.0069 0.9999 0.0088
vn 0.0064 0.9999 0.0091
vn 0.0060 0.9999 0.0094
vn 0.0055 0.9999 0.0097
vn 0.0050 0.9999 0.0100
vn 0.0045 0.9999 0.0102
vn 0.0040 0.9999 0.0104
vn 0.0035 0.9999 0.0106
vn 0.0030 0.9999 0.0108
vn 0.0024 0.9999 0.0109
vn 0.0019 0.9999 0.0110
vn 0.0014 0.9999 0.0111
vn 0.0008 0.9999 0.0111
vn 0.0003 0.9999 0.0112
vn -0.0003 0.9999 0.0112
vn -0.0008 0.9999 0.0111
vn -0.0014 0.9999 0.0111
vn -0.0019 0.9999 0.0110
vn -0.0025 0.9999 0.0109
vn -0.0030 0.9999 0.0108
vn -0.0035 0.9999 0.0106
vn -0.0040 0.9999 0.0104
vn -0.0045 0.9999 0.0102
vn -0.0050 0.9999 0.0100
vn -0.0055 0.9999 0.0098
vn -0.0060 0.9999 0.0095
vn -0.0065 0.9999 0.0092
vn -0.0069 0.9999 0.0089
vn -0.0073 0.9999 0.0085
vn -0.0077 0.9999 0.0081
vn -0.0081 0.9999 0.0078
vn -0.0085 0.9999 0.0073
vn -0.0089 0.9999 0.0069
vn -0.0092 0.9999 0.0065
vn -0.0095 0.9999 0.0060
vn -0.0098 0.9999 0.0056
vn -0.0101 0.9999 0.0051
vn -0.0103 0.9999 0.0046
vn -0.0105 0.9999 0.0041
vn -0.0107 0.9999 0.0035
vn -0.0109 0.9999 0.0030
vn -0.0110 0.9999 0.0025
vn -0.0111 0.9999 0.0019
vn -0.0112 0.9999 0.0014
vn -0.0113 0.9999 0.0008
vn -0.0113 0.9999 0.0003
vn -0.0113 0.9999 -0.0003
vn -0.0113 0.9999 -0.0008
vn -0.0112 0.9999 -0.0014
vn -0.0112 0.9999 -0.0019
vn -0.0111 0.9999 -0.0025
vn -0.0109 0.9999 -0.0030
vn -0.0108 0.9999 -0.0036
vn -0.0106 0.9999 -0.0041
vn -0.0104 0.9999 -0.0046
vn -0.0101 0.9999 -0.0051
vn -0.0099 0.9999 -0.0056
vn -0.0096 0.9999 -0.0061
vn -0.0093 0.9999 -0.0065
vn -0.0089 0.9999 -0.0070
vn -0.0086 0.9999 -0.0074
vn -0.0065 0.9999 -0.0088
vn -0.0070 0.9999 -0.0090
vn -0.0061 0.9999 -0.0096
vn -0.0056 0.9999 -0.0099
vn -0.0051 0.9999 -0.0101
vn -0.0046 0.9999 -0.0104
vn -0.0041 0.9999 -0.0106
vn -0.0036 0.9999 -0.0108
vn -0.0030 0.9999 -0.0109
vn -0.0025 0.9999 -0.0111
vn -0.0019 0.9999 -0.0112
vn -0.0014 0.9999 -0.0113
vn -0.0008 0.9999 -0.0113
vn -0.0003 0.9999 -0.0113
vn -0.0040 0.9999 -0.0125
vn -0.0071 0.9999 -0.0089
usemtl None
s off
f 252/1/1 1/2/1 2/3/1
f 2/3/2 3/4/2 4/5/2
f 4/5/3 5/6/3 6/7/3
f 6/7/4 7/8/4 8/9/4
f 8/9/5 9/10/5 10/11/5
f 10/11/6 11/12/6 12/13/6
f 12/13/7 13/14/7 14/15/7
f 14/15/8 15/16/8 16/17/8
f 16/17/9 17/18/9 18/19/9
f 18/19/10 19/20/10 20/21/10
f 20/21/11 21/22/11 22/23/11
f 22/23/12 23/24/12 24/25/12
f 24/25/13 25/26/13 26/27/13
f 26/27/14 27/28/14 28/29/14
f 28/29/15 29/30/15 30/31/15
f 30/31/16 31/32/16 32/33/16
f 32/33/17 33/34/17 34/35/17
f 34/35/18 35/36/18 36/37/18
f 36/37/19 37/38/19 38/39/19
f 38/39/20 39/40/20 40/41/20
f 40/41/21 41/42/21 42/43/21
f 42/43/22 43/44/22 44/45/22
f 44/45/23 45/46/23 46/47/23
f 46/47/24 47/48/24 48/49/24
f 48/49/25 49/50/25 50/51/25
f 50/51/26 51/52/26 52/53/26
f 52/53/27 53/54/27 54/55/27
f 54/55/28 55/56/28 56/57/28
f 56/57/29 57/58/29 58/59/29
f 58/59/30 59/60/30 60/61/30
f 60/61/31 61/62/31 62/63/31
f 62/63/32 63/64/32 64/65/32
f 64/65/33 65/66/33 66/67/33
f 66/67/34 67/68/34 68/69/34
f 68/69/35 69/70/35 70/71/35
f 70/71/36 71/72/36 72/73/36
f 72/73/37 73/74/37 74/75/37
f 74/75/38 75/76/38 76/77/38
f 76/77/39 77/78/39 78/79/39
f 78/79/40 79/80/40 80/81/40
f 80/81/41 81/82/41 82/83/41
f 82/83/42 83/84/42 84/85/42
f 84/85/43 85/86/43 86/87/43
f 86/87/44 87/88/44 88/89/44
f 88/89/45 89/90/45 90/91/45
f 90/91/46 91/92/46 92/93/46
f 92/93/47 93/94/47 94/95/47
f 94/95/48 95/96/48 96/97/48
f 96/97/49 97/98/49 98/99/49
f 98/99/50 99/100/50 100/101/50
f 99/100/51 102/102/51 100/101/51
f 101/103/52 104/104/52 102/102/52
f 103/105/53 106/106/53 104/104/53
f 105/107/54 108/108/54 106/106/54
f 107/109/55 110/110/55 108/108/55
f 109/111/56 112/112/56 110/110/56
f 111/113/57 114/114/57 112/112/57
f 113/115/58 116/116/58 114/114/58
f 115/117/59 118/118/59 116/116/59
f 117/119/60 120/120/60 118/118/60
f 119/121/61 122/122/61 120/120/61
f 121/123/62 124/124/62 122/122/62
f 123/125/63 126/126/63 124/124/63
f 125/127/64 128/128/64 126/126/64
f 127/129/65 130/130/65 128/128/65
f 129/131/66 132/132/66 130/130/66
f 131/133/67 134/134/67 132/132/67
f 133/135/68 136/136/68 134/134/68
f 135/137/69 138/138/69 136/136/69
f 137/139/70 140/140/70 138/138/70
f 139/141/71 142/142/71 140/140/71
f 141/143/72 144/144/72 142/142/72
f 143/145/73 146/146/73 144/144/73
f 145/147/74 148/148/74 146/146/74
f 147/149/75 150/150/75 148/148/75
f 149/151/76 152/152/76 150/150/76
f 151/153/77 154/154/77 152/152/77
f 153/155/78 156/156/78 154/154/78
f 155/157/79 158/158/79 156/156/79
f 157/159/80 160/160/80 158/158/80
f 159/161/81 162/162/81 160/160/81
f 161/163/82 164/164/82 162/162/82
f 163/165/83 166/166/83 164/164/83
f 165/167/84 168/168/84 166/166/84
f 167/169/85 170/170/85 168/168/85
f 169/171/86 172/172/86 170/170/86
f 171/173/87 174/174/87 172/172/87
f 173/175/88 176/176/88 174/174/88
f 175/177/89 178/178/89 176/176/89
f 177/179/90 180/180/90 178/178/90
f 179/181/91 182/182/91 180/180/91
f 181/183/92 184/184/92 182/182/92
f 183/185/93 186/186/93 184/184/93
f 185/187/94 188/188/94 186/186/94
f 187/189/95 190/190/95 188/188/95
f 189/191/96 192/192/96 190/190/96
f 191/193/97 194/194/97 192/192/97
f 193/195/98 196/196/98 194/194/98
f 195/197/99 198/198/99 196/196/99
f 197/199/100 200/200/100 198/198/100
f 199/201/101 202/202/101 200/200/101
f 201/203/102 204/204/102 202/202/102
f 203/205/103 206/206/103 204/204/103
f 205/207/104 208/208/104 206/206/104
f 207/209/105 210/210/105 208/208/105
f 209/211/106 212/212/106 210/210/106
f 211/213/107 214/214/107 212/212/107
f 213/215/108 216/216/108 214/214/108
f 215/217/109 218/218/109 216/216/109
f 217/219/110 220/220/110 218/218/110
f 219/221/111 222/222/111 220/220/111
f 222/222/112 223/223/112 224/224/112
f 225/225/113 228/226/113 226/227/113
f 228/226/114 229/228/114 230/229/114
f 230/229/115 231/230/115 232/231/115
f 232/231/116 233/232/116 234/233/116
f 234/233/117 235/234/117 236/235/117
f 236/235/118 237/236/118 238/237/118
f 238/237/119 239/238/119 240/239/119
f 240/239/120 241/240/120 242/241/120
f 242/241/121 243/242/121 244/243/121
f 244/243/122 245/244/122 246/245/122
f 246/245/123 247/246/123 248/247/123
f 248/247/124 249/248/124 250/249/124
f 250/249/125 251/250/125 252/1/125
f 252/1/1 251/250/1 1/2/1
f 2/3/2 1/2/2 3/4/2
f 4/5/3 3/4/3 5/6/3
f 6/7/4 5/6/4 7/8/4
f 8/9/5 7/8/5 9/10/5
f 10/11/6 9/10/6 11/12/6
f 12/13/7 11/12/7 13/14/7
f 14/15/8 13/14/8 15/16/8
f 16/17/9 15/16/9 17/18/9
f 18/19/10 17/18/10 19/20/10
f 20/21/11 19/20/11 21/22/11
f 22/23/12 21/22/12 23/24/12
f 24/25/13 23/24/13 25/26/13
f 26/27/14 25/26/14 27/28/14
f 28/29/15 27/28/15 29/30/15
f 30/31/16 29/30/16 31/32/16
f 32/33/17 31/32/17 33/34/17
f 34/35/18 33/34/18 35/36/18
f 36/37/19 35/36/19 37/38/19
f 38/39/20 37/38/20 39/40/20
f 40/41/21 39/40/21 41/42/21
f 42/43/22 41/42/22 43/44/22
f 44/45/23 43/44/23 45/46/23
f 46/47/24 45/46/24 47/48/24
f 48/49/25 47/48/25 49/50/25
f 50/51/26 49/50/26 51/52/26
f 52/53/27 51/52/27 53/54/27
f 54/55/28 53/54/28 55/56/28
f 56/57/29 55/56/29 57/58/29
f 58/59/30 57/58/30 59/60/30
f 60/61/31 59/60/31 61/62/31
f 62/63/32 61/62/32 63/64/32
f 64/65/33 63/64/33 65/66/33
f 66/67/34 65/66/34 67/68/34
f 68/69/35 67/68/35 69/70/35
f 70/71/36 69/70/36 71/72/36
f 72/73/37 71/72/37 73/74/37
f 74/75/38 73/74/38 75/76/38
f 76/77/39 75/76/39 77/78/39
f 78/79/40 77/78/40 79/80/40
f 80/81/41 79/80/41 81/82/41
f 82/83/42 81/82/42 83/84/42
f 84/85/43 83/84/43 85/86/43
f 86/87/44 85/86/44 87/88/44
f 88/89/45 87/88/45 89/90/45
f 90/91/46 89/90/46 91/92/46
f 92/93/47 91/92/47 93/94/47
f 94/95/48 93/94/48 95/96/48
f 96/97/49 95/96/49 97/98/49
f 98/99/50 97/98/50 99/100/50
f 99/100/51 101/103/51 102/102/51
f 101/103/52 103/105/52 104/104/52
f 103/105/53 105/107/53 106/106/53
f 105/107/54 107/109/54 108/108/54
f 107/109/55 109/111/55 110/110/55
f 109/111/56 111/113/56 112/112/56
f 111/113/57 113/115/57 114/114/57
f 113/115/58 115/117/58 116/116/58
f 115/117/59 117/119/59 118/118/59
f 117/119/60 119/121/60 120/120/60
f 119/121/61 121/123/61 122/122/61
f 121/123/62 123/125/62 124/124/62
f 123/125/63 125/127/63 126/126/63
f 125/127/64 127/129/64 128/128/64
f 127/129/65 129/131/65 130/130/65
f 129/131/66 131/133/66 132/132/66
f 131/133/67 133/135/67 134/134/67
f 133/135/68 135/137/68 136/136/68
f 135/137/69 137/139/69 138/138/69
f 137/139/70 139/141/70 140/140/70
f 139/141/71 141/143/71 142/142/71
f 141/143/72 143/145/72 144/144/72
f 143/145/73 145/147/73 146/146/73
f 145/147/74 147/149/74 148/148/74
f 147/149/75 149/151/75 150/150/75
f 149/151/76 151/153/76 152/152/76
f 151/153/77 153/155/77 154/154/77
f 153/155/78 155/157/78 156/156/78
f 155/157/79 157/159/79 158/158/79
f 157/159/80 159/161/80 160/160/80
f 159/161/81 161/163/81 162/162/81
f 161/163/82 163/165/82 164/164/82
f 163/165/83 165/167/83 166/166/83
f 165/167/84 167/169/84 168/168/84
f 167/169/85 169/171/85 170/170/85
f 169/171/86 171/173/86 172/172/86
f 171/173/87 173/175/87 174/174/87
f 173/175/88 175/177/88 176/176/88
f 175/177/89 177/179/89 178/178/89
f 177/179/90 179/181/90 180/180/90
f 179/181/91 181/183/91 182/182/91
f 181/183/92 183/185/92 184/184/92
f 183/185/93 185/187/93 186/186/93
f 185/187/94 187/189/94 188/188/94
f 187/189/95 189/191/95 190/190/95
f 189/191/96 191/193/96 192/192/96
f 191/193/97 193/195/97 194/194/97
f 193/195/98 195/197/98 196/196/98
f 195/197/99 197/199/99 198/198/99
f 197/199/100 199/201/100 200/200/100
f 199/201/101 201/203/101 202/202/101
f 201/203/102 203/205/102 204/204/102
f 203/205/103 205/207/103 206/206/103
f 205/207/104 207/209/104 208/208/104
f 207/209/105 209/211/105 210/210/105
f 209/211/106 211/213/106 212/212/106
f 211/213/107 213/215/107 214/214/107
f 213/215/108 215/217/108 216/216/108
f 215/217/109 217/219/109 218/218/109
f 217/219/110 219/221/110 220/220/110
f 219/221/111 221/251/111 222/222/111
f 222/222/126 221/251/126 223/223/126
f 225/225/127 227/252/127 228/226/127
f 228/226/114 227/252/114 229/228/114
f 230/229/115 229/228/115 231/230/115
f 232/231/116 231/230/116 233/232/116
f 234/233/117 233/232/117 235/234/117
f 236/235/118 235/234/118 237/236/118
f 238/237/119 237/236/119 239/238/119
f 240/239/120 239/238/120 241/240/120
f 242/241/121 241/240/121 243/242/121
f 244/243/122 243/242/122 245/244/122
f 246/245/123 245/244/123 247/246/123
f 248/247/124 247/246/124 249/248/124
f 250/249/125 249/248/125 251/250/125
