# Blender v2.79 (sub 0) OBJ File: 'box.blend'
# www.blender.org
mtllib tray.mtl
o side_1_Cube.006
v 2.729753 0.849550 2.515782
v 2.729753 -0.404676 2.515782
v -2.918837 0.849550 2.533358
v -2.918837 -0.404676 2.533358
v 2.730591 0.849550 2.785155
v 2.730591 -0.404676 2.785155
v -2.917999 0.849550 2.802731
v -2.917999 -0.404676 2.802731
v 2.729753 0.849550 -2.890086
v 2.729753 -0.404675 -2.890086
v -2.918837 0.849550 -2.872510
v -2.918837 -0.404675 -2.872510
v 2.730591 0.849550 -2.620714
v 2.730591 -0.404675 -2.620714
v -2.917999 0.849550 -2.603138
v -2.917999 -0.404675 -2.603138
v 2.730741 0.849550 2.794025
v 2.730741 -0.404676 2.794025
v 2.730741 0.849550 -2.854592
v 2.730741 -0.404675 -2.854592
v 2.461368 0.849550 2.794024
v 2.461368 -0.404676 2.794024
v 2.461368 0.849550 -2.854593
v 2.461368 -0.404675 -2.854593
v -2.643978 0.849550 2.794024
v -2.643978 -0.404676 2.794024
v -2.643979 0.849550 -2.854592
v -2.643979 -0.404675 -2.854592
v -2.913351 0.849550 2.794025
v -2.913351 -0.404676 2.794025
v -2.913351 0.849550 -2.854593
v -2.913351 -0.404675 -2.854593
v -2.918602 -0.586003 2.794025
v -2.918602 -0.389050 2.794025
v -2.918601 -0.586003 -2.854592
v -2.918601 -0.389050 -2.854592
v 2.730016 -0.586003 2.794024
v 2.730016 -0.389050 2.794024
v 2.730015 -0.586003 -2.854594
v 2.730015 -0.389050 -2.854594
vn -0.0031 0.0000 -1.0000
vn -1.0000 0.0000 0.0031
vn 0.0031 0.0000 1.0000
vn 1.0000 0.0000 -0.0031
vn 0.0000 1.0000 0.0000
vn 0.0000 -1.0000 0.0000
vn 1.0000 0.0000 -0.0000
vn 0.0000 0.0000 -1.0000
vn -1.0000 0.0000 0.0000
vn -0.0000 0.0000 1.0000
usemtl Material.003
s off
f 2//1 3//1 1//1
f 4//2 7//2 3//2
f 8//3 5//3 7//3
f 6//4 1//4 5//4
f 7//5 1//5 3//5
f 4//6 6//6 8//6
f 2//1 4//1 3//1
f 4//2 8//2 7//2
f 8//3 6//3 5//3
f 6//4 2//4 1//4
f 7//5 5//5 1//5
f 4//6 2//6 6//6
usemtl Material.005
f 10//1 11//1 9//1
f 12//2 15//2 11//2
f 16//3 13//3 15//3
f 14//4 9//4 13//4
f 15//5 9//5 11//5
f 12//6 14//6 16//6
f 10//1 12//1 11//1
f 12//2 16//2 15//2
f 16//3 14//3 13//3
f 14//4 10//4 9//4
f 15//5 13//5 9//5
f 12//6 10//6 14//6
usemtl Material.004
f 18//7 19//7 17//7
f 20//8 23//8 19//8
f 23//9 22//9 21//9
f 22//10 17//10 21//10
f 19//5 21//5 17//5
f 20//6 22//6 24//6
f 18//7 20//7 19//7
f 20//8 24//8 23//8
f 23//9 24//9 22//9
f 22//10 18//10 17//10
f 19//5 23//5 21//5
f 20//6 18//6 22//6
usemtl Material.002
f 26//7 27//7 25//7
f 28//8 31//8 27//8
f 31//9 30//9 29//9
f 30//10 25//10 29//10
f 27//5 29//5 25//5
f 28//6 30//6 32//6
f 26//7 28//7 27//7
f 28//8 32//8 31//8
f 31//9 32//9 30//9
f 30//10 26//10 25//10
f 27//5 31//5 29//5
f 28//6 26//6 30//6
usemtl Material.001
f 34//9 35//9 33//9
f 36//8 39//8 35//8
f 40//7 37//7 39//7
f 38//10 33//10 37//10
f 39//6 33//6 35//6
f 40//5 34//5 38//5
f 34//9 36//9 35//9
f 36//8 40//8 39//8
f 40//7 38//7 37//7
f 38//10 34//10 33//10
f 39//6 37//6 33//6
f 40//5 36//5 34//5
