# Blender v2.79 (sub 0) OBJ File: ''
# www.blender.org
mtllib tray.mtl
o side_1_Cube.000
v 20.402365 -3.865717 8.528972
v -22.006010 5.550735 8.660930
v 20.402365 5.550735 8.528972
v -22.006010 -3.865717 8.660930
v -21.999712 5.550735 10.683312
v -21.999712 -3.865717 10.683312
v 20.408651 5.550735 10.551356
v 20.408651 -3.865717 10.551356
v 20.402355 -3.865715 -32.057087
v -22.006010 5.550737 -31.925133
v 20.402355 5.550737 -32.057087
v -22.006010 -3.865715 -31.925133
v -21.999712 5.550737 -29.902748
v -21.999712 -3.865715 -29.902748
v 20.408651 5.550737 -30.034706
v 20.408651 -3.865715 -30.034706
v 20.409782 -3.865717 10.617953
v 20.409775 5.550737 -31.790615
v 20.409782 5.550727 10.617953
v 20.409775 -3.865715 -31.790615
v 18.387384 5.550737 -31.790615
v 18.387384 -3.865717 10.617961
v 18.387384 5.550727 10.617961
v 18.387384 -3.865715 -31.790615
v -19.942425 -3.865717 10.617953
v -19.942425 5.550737 -31.790615
v -19.942425 5.550727 10.617953
v -19.942425 -3.865715 -31.790615
v -21.964825 5.550737 -31.790615
v -21.964815 -3.865717 10.617961
v -21.964815 5.550727 10.617961
v -21.964825 -3.865715 -31.790615
v -22.004242 -3.748408 10.617961
v -22.004242 -5.227086 -31.790615
v -22.004242 -5.227088 10.617961
v -22.004242 -3.748406 -31.790615
v 20.404329 -5.227086 -31.790615
v 20.404329 -3.748406 -31.790615
v 20.404337 -5.227088 10.617953
v 20.404337 -3.748408 10.617953
vn -0.0031 0.0000 -1.0000
vn -1.0000 0.0000 0.0031
vn 0.0031 0.0000 1.0000
vn 1.0000 0.0000 -0.0031
vn 0.0000 1.0000 -0.0000
vn 0.0000 -1.0000 -0.0000
vn 1.0000 0.0000 -0.0000
vn 0.0000 0.0000 -1.0000
vn -1.0000 0.0000 0.0000
vn 0.0000 0.0000 1.0000
usemtl Material.006
s 1
f 1//1 2//1 3//1
f 4//2 5//2 2//2
f 6//3 7//3 5//3
f 8//4 3//4 7//4
f 5//5 3//5 2//5
f 4//6 8//6 6//6
f 1//1 4//1 2//1
f 4//2 6//2 5//2
f 6//3 8//3 7//3
f 8//4 1//4 3//4
f 5//5 7//5 3//5
f 4//6 1//6 8//6
usemtl Material.007
f 9//1 10//1 11//1
f 12//2 13//2 10//2
f 14//3 15//3 13//3
f 16//4 11//4 15//4
f 13//5 11//5 10//5
f 12//6 16//6 14//6
f 9//1 12//1 10//1
f 12//2 14//2 13//2
f 14//3 16//3 15//3
f 16//4 9//4 11//4
f 13//5 15//5 11//5
f 12//6 9//6 16//6
usemtl Material.008
f 17//7 18//7 19//7
f 20//8 21//8 18//8
f 21//9 22//9 23//9
f 22//10 19//10 23//10
f 18//5 23//5 19//5
f 20//6 22//6 24//6
f 17//7 20//7 18//7
f 20//8 24//8 21//8
f 21//9 24//9 22//9
f 22//10 17//10 19//10
f 18//5 21//5 23//5
f 20//6 17//6 22//6
usemtl Material.009
f 25//7 26//7 27//7
f 28//8 29//8 26//8
f 29//9 30//9 31//9
f 30//10 27//10 31//10
f 26//5 31//5 27//5
f 28//6 30//6 32//6
f 25//7 28//7 26//7
f 28//8 32//8 29//8
f 29//9 32//9 30//9
f 30//10 25//10 27//10
f 26//5 29//5 31//5
f 28//6 25//6 30//6
usemtl Material.010
f 33//9 34//9 35//9
f 36//8 37//8 34//8
f 38//7 39//7 37//7
f 40//10 35//10 39//10
f 37//6 35//6 34//6
f 38//5 33//5 40//5
f 33//9 36//9 34//9
f 36//8 38//8 37//8
f 38//7 40//7 39//7
f 40//10 33//10 35//10
f 37//6 39//6 35//6
f 38//5 36//5 33//5
