# Blender v2.79 (sub 0) OBJ File: 'untitled.blend1'
# www.blender.org
mtllib uraRing.mtl
o Sphere
v 0.130101 -0.060458 -1.249466
v 0.195311 -0.100917 -1.982346
v 0.130242 -0.122022 -1.244948
v 0.195536 -0.198818 -1.975160
v 0.130080 -0.183291 -1.237429
v 0.195278 -0.296251 -1.963203
v 0.129615 -0.244119 -1.226928
v 0.194538 -0.392982 -1.946505
v 0.128848 -0.304359 -1.213470
v 0.193318 -0.488777 -1.925104
v 0.127781 -0.363865 -1.197088
v 0.191621 -0.583407 -1.899052
v 0.126416 -0.422495 -1.177821
v 0.189451 -0.676642 -1.868413
v 0.124757 -0.480107 -1.155716
v 0.186813 -0.768258 -1.833260
v 0.122808 -0.536562 -1.130825
v 0.183713 -0.858035 -1.793678
v 0.120573 -0.591724 -1.103209
v 0.180159 -0.945757 -1.749762
v 0.118058 -0.645461 -1.072935
v 0.176160 -1.031211 -1.701618
v 0.115269 -0.697642 -1.040074
v 0.171725 -1.114192 -1.649362
v 0.112213 -0.748143 -1.004707
v 0.166864 -1.194501 -1.593120
v 0.108896 -0.796842 -0.966918
v 0.161590 -1.271943 -1.533027
v 0.105328 -0.843620 -0.926799
v 0.155916 -1.346332 -1.469228
v 0.101516 -0.888366 -0.884446
v 0.149854 -1.417490 -1.401876
v 0.097470 -0.930972 -0.839962
v 0.143420 -1.485243 -1.331136
v 0.093199 -0.971336 -0.793452
v 0.136628 -1.549430 -1.257175
v 0.088714 -1.009358 -0.745031
v 0.129496 -1.609896 -1.180173
v 0.084026 -1.044950 -0.694813
v 0.122041 -1.666495 -1.100315
v 0.079146 -1.078023 -0.642921
v 0.114280 -1.719090 -1.017793
v 0.074085 -1.108500 -0.589478
v 0.106232 -1.767555 -0.932807
v 0.068856 -1.136306 -0.534615
v 0.097917 -1.811773 -0.845561
v 0.063472 -1.161374 -0.478462
v 0.089355 -1.851638 -0.756265
v 0.057945 -1.183645 -0.421156
v 0.080565 -1.887054 -0.665134
v 0.052289 -1.203063 -0.362834
v 0.071570 -1.917934 -0.572389
v 0.046517 -1.219584 -0.303637
v 0.062392 -1.944206 -0.478251
v 0.040643 -1.233166 -0.243708
v 0.053051 -1.965805 -0.382949
v 0.034682 -1.243778 -0.183190
v 0.043571 -1.982680 -0.286711
v 0.028647 -1.251392 -0.122230
v 0.033975 -1.994789 -0.189771
v 0.022554 -1.255993 -0.060975
v 0.024285 -2.002105 -0.092360
v 0.016416 -1.257567 0.000428
v 0.014525 -2.004608 0.005287
v 0.010250 -1.256111 0.061832
v 0.004719 -2.002293 0.102933
v 0.004069 -1.251630 0.123087
v -0.005110 -1.995166 0.200344
v -0.002111 -1.244133 0.184047
v -0.014939 -1.983244 0.297285
v -0.008276 -1.233638 0.244565
v -0.024742 -1.966556 0.393522
v -0.014411 -1.220172 0.304494
v -0.034498 -1.945141 0.488824
v -0.020501 -1.203766 0.363691
v -0.044182 -1.919052 0.582962
v -0.026531 -1.184460 0.422013
v -0.053771 -1.888350 0.675707
v -0.032487 -1.162300 0.479319
v -0.063242 -1.853111 0.766838
v -0.038354 -1.137340 0.535471
v -0.072573 -1.813419 0.856134
v -0.044118 -1.109640 0.590335
v -0.081740 -1.769370 0.943380
v -0.049766 -1.079267 0.643777
v -0.090721 -1.721069 1.028366
v -0.055284 -1.046294 0.695670
v -0.099496 -1.668633 1.110888
v -0.060658 -1.010800 0.745887
v -0.108042 -1.612189 1.190746
v -0.065876 -0.972870 0.794309
v -0.116339 -1.551873 1.267748
v -0.070924 -0.932597 0.840818
v -0.124368 -1.487829 1.341709
v -0.075792 -0.890077 0.885303
v -0.132109 -1.420212 1.412450
v -0.080467 -0.845413 0.927656
v -0.139542 -1.349185 1.479801
v -0.084937 -0.798712 0.967775
v -0.146652 -1.274919 1.543600
v -0.089193 -0.750086 1.005563
v -0.153419 -1.197593 1.603694
v -0.093223 -0.699654 1.040931
v -0.159828 -1.117393 1.659936
v -0.097019 -0.647536 1.073791
v -0.165864 -1.034513 1.712192
v -0.100570 -0.593858 1.104066
v -0.171512 -0.949152 1.760336
v -0.103869 -0.538749 1.131682
v -0.176758 -0.861515 1.804253
v -0.106907 -0.482342 1.156572
v -0.181589 -0.771814 1.843835
v -0.109678 -0.424773 1.178678
v -0.185995 -0.680266 1.878988
v -0.112173 -0.366180 1.197945
v -0.189964 -0.587090 1.909627
v -0.114389 -0.306706 1.214327
v -0.193487 -0.492511 1.935678
v -0.116318 -0.246492 1.227784
v -0.196555 -0.396756 1.957079
v -0.117957 -0.185684 1.238285
v -0.199161 -0.300058 1.973778
v -0.119302 -0.124429 1.245804
v -0.201299 -0.202647 1.985734
v -0.120348 -0.062874 1.250322
v -0.202964 -0.104760 1.992920
v -0.121095 -0.001168 1.251830
v -0.204151 -0.006632 1.995317
v -0.121539 0.060541 1.250322
v -0.204858 0.091501 1.992920
v -0.121681 0.122105 1.245804
v -0.205083 0.189402 1.985734
v -0.121519 0.183375 1.238285
v -0.204825 0.286835 1.973778
v -0.121053 0.244202 1.227784
v -0.204085 0.383567 1.957079
v -0.120286 0.304442 1.214327
v -0.202865 0.479362 1.935678
v -0.119219 0.363948 1.197945
v -0.201168 0.573992 1.909626
v -0.117854 0.422578 1.178678
v -0.198998 0.667227 1.878987
v -0.116195 0.480190 1.156572
v -0.196360 0.758844 1.843835
v -0.114246 0.536645 1.131682
v -0.193260 0.848621 1.804252
v -0.112011 0.591807 1.104066
v -0.189706 0.936342 1.760336
v -0.109496 0.645544 1.073791
v -0.185707 1.021797 1.712192
v -0.106707 0.697726 1.040931
v -0.181272 1.104778 1.659936
v -0.103651 0.748226 1.005563
v -0.176411 1.185087 1.603693
v -0.100335 0.796925 0.967775
v -0.171137 1.262529 1.543600
v -0.096766 0.843703 0.927655
v -0.165463 1.336918 1.479801
v -0.092954 0.888450 0.885302
v -0.159401 1.408075 1.412450
v -0.088908 0.931056 0.840818
v -0.152967 1.475829 1.341709
v -0.084638 0.971419 0.794309
v -0.146175 1.540016 1.267748
v -0.080153 1.009441 0.745887
v -0.139043 1.600481 1.190745
v -0.075465 1.045033 0.695669
v -0.131588 1.657080 1.110887
v -0.070584 1.078106 0.643777
v -0.123827 1.709674 1.028366
v -0.065524 1.108583 0.590335
v -0.115779 1.758139 0.943380
v -0.060295 1.136389 0.535471
v -0.107464 1.802358 0.856133
v -0.054910 1.161457 0.479319
v -0.098901 1.842222 0.766837
v -0.049383 1.183728 0.422013
v -0.090112 1.877638 0.675707
v -0.043727 1.203146 0.363691
v -0.081117 1.908518 0.582961
v -0.037955 1.219667 0.304494
v -0.071938 1.934790 0.488824
v -0.032081 1.233249 0.244564
v -0.062598 1.956389 0.393522
v -0.026120 1.243861 0.184047
v -0.053118 1.973263 0.297284
v -0.020085 1.251476 0.123087
v -0.043521 1.985373 0.200343
v -0.013992 1.256076 0.061831
v -0.033832 1.992688 0.102932
v -0.007855 1.257650 0.000428
v -0.024072 1.995191 0.005286
v -0.001688 1.256194 -0.060975
v -0.014266 1.992877 -0.092360
v 0.004493 1.251713 -0.122231
v -0.004437 1.985750 -0.189771
v 0.010673 1.244216 -0.183191
v 0.005392 1.973827 -0.286712
v 0.016838 1.233721 -0.243708
v 0.015195 1.957139 -0.382949
v 0.022973 1.220255 -0.303638
v 0.024951 1.935724 -0.478251
v 0.029062 1.203849 -0.362835
v 0.034635 1.909634 -0.572389
v 0.035092 1.184543 -0.421156
v 0.044224 1.878933 -0.665134
v 0.041048 1.162383 -0.478463
v 0.053695 1.843693 -0.756265
v 0.046915 1.137423 -0.534615
v 0.063026 1.804001 -0.845560
v 0.052680 1.109723 -0.589478
v 0.072193 1.759952 -0.932807
v 0.058328 1.079350 -0.642921
v 0.081174 1.711651 -1.017793
v 0.063845 1.046377 -0.694813
v 0.089949 1.659215 -1.100314
v 0.069220 1.010883 -0.745031
v 0.098495 1.602771 -1.180172
v 0.074437 0.972953 -0.793453
v 0.106792 1.542454 -1.257174
v 0.079486 0.932680 -0.839962
v 0.114821 1.478410 -1.331135
v 0.086928 0.858373 -0.913292
v 0.130681 1.327651 -1.478001
v 0.087726 0.858679 -0.915069
v 0.127583 1.367668 -1.447839
v 0.101785 0.699737 -1.040074
v 0.150281 1.107975 -1.649361
v 0.105580 0.647619 -1.072934
v 0.156317 1.025095 -1.701617
v 0.109132 0.593941 -1.103209
v 0.161964 0.939734 -1.749761
v 0.112430 0.538832 -1.130825
v 0.167210 0.852097 -1.793677
v 0.115469 0.482425 -1.155716
v 0.172042 0.762397 -1.833259
v 0.118239 0.424856 -1.177821
v 0.176448 0.670849 -1.868412
v 0.120735 0.366263 -1.197088
v 0.180417 0.577672 -1.899051
v 0.122950 0.306789 -1.213470
v 0.183940 0.483094 -1.925102
v 0.124880 0.246575 -1.226928
v 0.187008 0.387339 -1.946503
v 0.126519 0.185767 -1.237428
v 0.189614 0.290641 -1.963202
v 0.127863 0.124512 -1.244947
v 0.191752 0.193231 -1.975158
v 0.128910 0.062957 -1.249465
v 0.193417 0.095344 -1.982344
v 0.129657 0.001251 -1.250973
v 0.194604 -0.002784 -1.984740
vt 0.996379 0.931653
vt -0.001041 0.826732
vt 0.996521 0.923744
vt -0.001017 0.819831
vt 0.996651 0.915620
vt -0.000999 0.812868
vt 0.996768 0.907302
vt -0.000987 0.805860
vt 0.996873 0.898808
vt -0.000979 0.798825
vt 0.996965 0.890161
vt -0.000736 0.757023
vt 0.997043 0.881379
vt -0.000689 0.750609
vt 0.997108 0.872486
vt -0.000646 0.744060
vt 0.997159 0.863501
vt -0.000609 0.737391
vt 0.997197 0.854447
vt -0.000578 0.730618
vt 0.997221 0.845346
vt -0.000551 0.723759
vt 0.997231 0.836219
vt -0.000530 0.716828
vt 0.997227 0.827089
vt -0.000515 0.709844
vt 0.997209 0.817977
vt -0.000892 0.678674
vt 0.997178 0.808905
vt -0.000871 0.671746
vt 0.997133 0.799896
vt -0.000855 0.664763
vt 0.997074 0.790970
vt -0.000845 0.657742
vt 0.997002 0.782150
vt -0.000840 0.650701
vt 0.996916 0.773457
vt -0.000841 0.643655
vt 0.996818 0.764911
vt -0.000847 0.636623
vt 0.996706 0.756534
vt -0.000858 0.629620
vt 0.996582 0.748345
vt -0.000876 0.622664
vt 0.996446 0.740364
vt -0.000898 0.615772
vt 0.996297 0.732610
vt -0.000926 0.608961
vt 0.996137 0.725102
vt -0.000959 0.602245
vt 0.996431 0.714258
vt -0.000998 0.595643
vt 0.996703 0.711843
vt -0.000928 0.581585
vt 0.996971 0.708999
vt -0.000823 0.579062
vt 0.997236 0.705732
vt -0.000720 0.576219
vt 0.997494 0.702051
vt -0.000619 0.573064
vt 0.997747 0.697965
vt -0.000521 0.569603
vt 0.997993 0.693482
vt -0.000426 0.565845
vt 0.998233 0.688615
vt -0.000333 0.561799
vt 0.998464 0.683374
vt -0.000244 0.557475
vt 0.998688 0.677773
vt -0.000159 0.552883
vt 0.998903 0.671824
vt -0.000077 0.548034
vt 0.999108 0.665543
vt 0.000001 0.542940
vt 0.999304 0.658944
vt 0.000076 0.537614
vt 0.999490 0.652043
vt 0.000145 0.532068
vt 0.999664 0.644857
vt 0.000211 0.526315
vt 0.999828 0.637404
vt 0.000272 0.520369
vt 0.999981 0.629700
vt 0.000373 0.499543
vt 0.999844 0.616640
vt 0.000425 0.493256
vt 0.999972 0.608493
vt 0.000471 0.486820
vt 1.000088 0.600153
vt 0.000512 0.480251
vt 1.000191 0.591641
vt 0.000549 0.473564
vt 1.000281 0.582977
vt 0.000580 0.466777
vt 1.000358 0.574182
vt 0.000605 0.459906
vt 1.000421 0.565277
vt 0.000625 0.452966
vt 1.000471 0.556283
vt 0.000640 0.445974
vt 1.000507 0.547223
vt 1.000529 0.538117
vt 0.000650 0.438948
vt 1.000538 0.528989
vt 0.000653 0.431904
vt 1.000532 0.519859
vt 0.000652 0.424860
vt 1.000513 0.510751
vt 0.000843 0.413481
vt 1.000570 0.492062
vt 0.000830 0.406486
vt 1.000523 0.483061
vt 0.000812 0.399541
vt 1.000463 0.474147
vt 0.000788 0.392664
vt 1.000389 0.465340
vt 0.000759 0.385869
vt 1.000302 0.456663
vt 0.000725 0.379174
vt 1.000202 0.448135
vt 0.000686 0.372595
vt 1.000089 0.439778
vt 0.000641 0.366148
vt 0.999963 0.431612
vt 0.000592 0.359848
vt 0.999825 0.423656
vt 0.000537 0.353711
vt 0.999532 0.410064
vt 0.000600 0.333201
vt 0.999536 0.400932
vt 0.000536 0.327432
vt 0.999525 0.391808
vt 0.000468 0.321869
vt 0.999501 0.382713
vt 0.000396 0.316525
vt 0.999463 0.373669
vt 0.000319 0.311412
vt 0.999411 0.364699
vt 0.000238 0.306544
vt 0.999345 0.355822
vt 0.000154 0.301931
vt 0.999267 0.347061
vt 0.000066 0.297585
vt 0.999106 0.331118
vt 0.000256 0.281223
vt 0.999103 0.321987
vt 0.000227 0.274440
vt 0.999086 0.312873
vt 0.000192 0.267760
vt 0.999055 0.303799
vt 0.000151 0.261198
vt 0.999011 0.294786
vt 0.000106 0.254770
vt 0.998953 0.285856
vt 0.000056 0.248491
vt 0.998881 0.277030
vt 0.000001 0.242376
vt 0.998796 0.268330
vt -0.000059 0.236441
vt 0.998698 0.259776
vt -0.000123 0.230699
vt 0.998587 0.251390
vt -0.000192 0.225164
vt 0.998488 0.243764
vt -0.000215 0.195413
vt 0.998392 0.230590
vt -0.000147 0.189783
vt 0.998483 0.221935
vt -0.000083 0.183951
vt 0.998560 0.213146
vt -0.000024 0.177933
vt 0.998624 0.204247
vt 0.000030 0.171742
vt 0.998675 0.195258
vt 0.000080 0.165393
vt 0.998712 0.186201
vt 0.000124 0.158902
vt 0.998735 0.177098
vt 0.000163 0.152284
vt 0.998744 0.167970
vt 0.000198 0.145556
vt 0.998740 0.158840
vt 0.000227 0.138733
vt 0.998721 0.149730
vt 0.000250 0.131832
vt 0.998689 0.140661
vt 0.000268 0.124869
vt 0.998643 0.131656
vt 0.000281 0.117862
vt 0.998584 0.122736
vt 0.000288 0.110827
vt 0.998511 0.113922
vt 0.000289 0.103781
vt 0.998425 0.105237
vt 0.000285 0.096741
vt 0.998325 0.096700
vt 0.000276 0.089724
vt 0.998213 0.088332
vt 0.000261 0.082748
vt 0.998088 0.080154
vt 0.000241 0.075828
vt 0.997951 0.072185
vt 0.000215 0.068981
vt 0.997802 0.064445
vt 0.000184 0.062225
vt 0.997642 0.056952
vt 0.000148 0.055574
vt 0.997470 0.049723
vt 0.000106 0.049046
vt 0.997287 0.042778
vt 0.000060 0.042656
vt 0.997094 0.036131
vt 0.000008 0.036419
vt 0.996891 0.029800
vt -0.000048 0.030351
vt 0.996679 0.023799
vt -0.000109 0.024465
vt 0.996458 0.018143
vt -0.000175 0.018777
vt 0.996229 0.012846
vt -0.000245 0.013300
vt 0.995992 0.007921
vt -0.000397 0.003030
vt 0.995747 0.003378
vt -0.000983 0.946312
vt 0.993880 1.003550
vt 0.993621 1.007184
vt -0.000980 0.932224
vt 0.994134 0.999509
vt -0.000988 0.925196
vt 0.994381 0.995072
vt -0.001000 0.918201
vt 0.994579 0.989927
vt -0.001018 0.911256
vt 0.994854 0.985050
vt -0.001042 0.904378
vt 0.995078 0.979489
vt -0.001071 0.897583
vt 0.995294 0.973580
vt -0.001105 0.890887
vt 0.995501 0.967336
vt -0.001144 0.884308
vt 0.995698 0.960773
vt -0.001189 0.877860
vt 0.995885 0.953906
vt -0.001238 0.871559
vt 0.996061 0.946752
vt -0.001104 0.840284
vt 0.996226 0.939329
vt -0.001069 0.833555
vt -0.000319 0.008046
vt -0.000979 0.939269
vn 0.9961 0.0093 0.0881
vn 0.9961 0.0088 0.0881
vn 0.9961 0.0082 0.0882
vn 0.9961 0.0076 0.0883
vn 0.9961 0.0071 0.0884
vn 0.9961 0.0065 0.0885
vn 0.9960 0.0060 0.0887
vn 0.9960 0.0054 0.0889
vn 0.9960 0.0049 0.0891
vn 0.9960 0.0044 0.0894
vn 0.9960 0.0039 0.0897
vn 0.9959 0.0034 0.0899
vn 0.9959 0.0029 0.0903
vn 0.9959 0.0025 0.0906
vn 0.9959 0.0021 0.0910
vn 0.9958 0.0016 0.0914
vn 0.9958 0.0012 0.0918
vn 0.9957 0.0009 0.0922
vn 0.9957 0.0005 0.0926
vn 0.9957 0.0002 0.0931
vn 0.9956 -0.0001 0.0935
vn 0.9956 -0.0004 0.0940
vn 0.9955 -0.0007 0.0945
vn 0.9955 -0.0009 0.0950
vn 0.9954 -0.0011 0.0956
vn 0.9954 -0.0013 0.0961
vn 0.9953 -0.0015 0.0966
vn 0.9953 -0.0016 0.0972
vn 0.9952 -0.0017 0.0977
vn 0.9952 -0.0018 0.0983
vn 0.9951 -0.0018 0.0988
vn 0.9950 -0.0019 0.0994
vn 0.9950 -0.0019 0.1000
vn 0.9949 -0.0018 0.1005
vn 0.9949 -0.0018 0.1011
vn 0.9948 -0.0017 0.1016
vn 0.9948 -0.0016 0.1022
vn 0.9947 -0.0014 0.1027
vn 0.9947 -0.0013 0.1033
vn 0.9946 -0.0011 0.1038
vn 0.9945 -0.0009 0.1043
vn 0.9945 -0.0006 0.1048
vn 0.9944 -0.0004 0.1053
vn 0.9944 -0.0001 0.1058
vn 0.9943 0.0002 0.1062
vn 0.9943 0.0006 0.1067
vn 0.9942 0.0009 0.1071
vn 0.9942 0.0013 0.1075
vn 0.9942 0.0017 0.1079
vn 0.9941 0.0021 0.1083
vn 0.9941 0.0026 0.1087
vn 0.9940 0.0030 0.1090
vn 0.9940 0.0035 0.1093
vn 0.9940 0.0040 0.1096
vn 0.9939 0.0044 0.1099
vn 0.9939 0.0050 0.1101
vn 0.9939 0.0055 0.1103
vn 0.9939 0.0060 0.1105
vn 0.9938 0.0065 0.1107
vn 0.9938 0.0071 0.1108
vn 0.9938 0.0076 0.1109
vn 0.9938 0.0082 0.1110
vn 0.9938 0.0087 0.1111
vn 0.9938 0.0093 0.1111
vn 0.9938 0.0099 0.1111
vn 0.9938 0.0104 0.1111
vn 0.9938 0.0110 0.1110
vn 0.9938 0.0116 0.1109
vn 0.9938 0.0121 0.1108
vn 0.9938 0.0127 0.1107
vn 0.9938 0.0132 0.1105
vn 0.9938 0.0137 0.1104
vn 0.9938 0.0142 0.1101
vn 0.9938 0.0148 0.1099
vn 0.9939 0.0153 0.1096
vn 0.9939 0.0157 0.1094
vn 0.9939 0.0162 0.1091
vn 0.9939 0.0167 0.1087
vn 0.9940 0.0171 0.1084
vn 0.9940 0.0175 0.1080
vn 0.9940 0.0179 0.1076
vn 0.9941 0.0183 0.1072
vn 0.9941 0.0187 0.1068
vn 0.9942 0.0190 0.1063
vn 0.9942 0.0194 0.1058
vn 0.9942 0.0197 0.1054
vn 0.9943 0.0199 0.1049
vn 0.9943 0.0202 0.1044
vn 0.9944 0.0204 0.1038
vn 0.9944 0.0206 0.1033
vn 0.9945 0.0208 0.1028
vn 0.9945 0.0209 0.1022
vn 0.9946 0.0210 0.1017
vn 0.9947 0.0211 0.1011
vn 0.9947 0.0212 0.1005
vn 0.9948 0.0212 0.1000
vn 0.9948 0.0212 0.0994
vn 0.9949 0.0212 0.0988
vn 0.9949 0.0211 0.0983
vn 0.9950 0.0211 0.0977
vn 0.9950 0.0210 0.0971
vn 0.9951 0.0208 0.0966
vn 0.9952 0.0207 0.0961
vn 0.9952 0.0205 0.0955
vn 0.9953 0.0203 0.0950
vn 0.9953 0.0200 0.0945
vn 0.9954 0.0197 0.0940
vn 0.9954 0.0195 0.0935
vn 0.9955 0.0191 0.0930
vn 0.9955 0.0188 0.0925
vn 0.9956 0.0184 0.0921
vn 0.9957 0.0164 0.0907
vn 0.9958 0.0168 0.0905
vn 0.9958 0.0158 0.0899
vn 0.9959 0.0154 0.0896
vn 0.9959 0.0149 0.0893
vn 0.9959 0.0143 0.0891
vn 0.9959 0.0138 0.0889
vn 0.9960 0.0133 0.0887
vn 0.9960 0.0127 0.0885
vn 0.9960 0.0122 0.0884
vn 0.9960 0.0116 0.0883
vn 0.9960 0.0110 0.0882
vn 0.9961 0.0105 0.0881
vn 0.9961 0.0099 0.0881
vn 0.9961 0.0139 0.0871
vn 0.9957 0.0169 0.0906
usemtl None
s off
f 252/1/1 1/2/1 2/3/1
f 2/3/2 3/4/2 4/5/2
f 4/5/3 5/6/3 6/7/3
f 6/7/4 7/8/4 8/9/4
f 8/9/5 9/10/5 10/11/5
f 10/11/6 11/12/6 12/13/6
f 12/13/7 13/14/7 14/15/7
f 14/15/8 15/16/8 16/17/8
f 16/17/9 17/18/9 18/19/9
f 18/19/10 19/20/10 20/21/10
f 20/21/11 21/22/11 22/23/11
f 22/23/12 23/24/12 24/25/12
f 24/25/13 25/26/13 26/27/13
f 26/27/14 27/28/14 28/29/14
f 28/29/15 29/30/15 30/31/15
f 30/31/16 31/32/16 32/33/16
f 32/33/17 33/34/17 34/35/17
f 34/35/18 35/36/18 36/37/18
f 36/37/19 37/38/19 38/39/19
f 38/39/20 39/40/20 40/41/20
f 40/41/21 41/42/21 42/43/21
f 42/43/22 43/44/22 44/45/22
f 44/45/23 45/46/23 46/47/23
f 46/47/24 47/48/24 48/49/24
f 48/49/25 49/50/25 50/51/25
f 50/51/26 51/52/26 52/53/26
f 52/53/27 53/54/27 54/55/27
f 54/55/28 55/56/28 56/57/28
f 56/57/29 57/58/29 58/59/29
f 58/59/30 59/60/30 60/61/30
f 60/61/31 61/62/31 62/63/31
f 62/63/32 63/64/32 64/65/32
f 64/65/33 65/66/33 66/67/33
f 66/67/34 67/68/34 68/69/34
f 68/69/35 69/70/35 70/71/35
f 70/71/36 71/72/36 72/73/36
f 72/73/37 73/74/37 74/75/37
f 74/75/38 75/76/38 76/77/38
f 76/77/39 77/78/39 78/79/39
f 78/79/40 79/80/40 80/81/40
f 80/81/41 81/82/41 82/83/41
f 82/83/42 83/84/42 84/85/42
f 84/85/43 85/86/43 86/87/43
f 86/87/44 87/88/44 88/89/44
f 88/89/45 89/90/45 90/91/45
f 90/91/46 91/92/46 92/93/46
f 92/93/47 93/94/47 94/95/47
f 94/95/48 95/96/48 96/97/48
f 96/97/49 97/98/49 98/99/49
f 98/99/50 99/100/50 100/101/50
f 99/100/51 102/102/51 100/101/51
f 101/103/52 104/104/52 102/102/52
f 103/105/53 106/106/53 104/104/53
f 105/107/54 108/108/54 106/106/54
f 107/109/55 110/110/55 108/108/55
f 109/111/56 112/112/56 110/110/56
f 111/113/57 114/114/57 112/112/57
f 113/115/58 116/116/58 114/114/58
f 115/117/59 118/118/59 116/116/59
f 117/119/60 120/120/60 118/118/60
f 119/121/61 122/122/61 120/120/61
f 121/123/62 124/124/62 122/122/62
f 123/125/63 126/126/63 124/124/63
f 125/127/64 128/128/64 126/126/64
f 127/129/65 130/130/65 128/128/65
f 129/131/66 132/132/66 130/130/66
f 131/133/67 134/134/67 132/132/67
f 133/135/68 136/136/68 134/134/68
f 135/137/69 138/138/69 136/136/69
f 137/139/70 140/140/70 138/138/70
f 139/141/71 142/142/71 140/140/71
f 141/143/72 144/144/72 142/142/72
f 143/145/73 146/146/73 144/144/73
f 145/147/74 148/148/74 146/146/74
f 147/149/75 150/150/75 148/148/75
f 149/151/76 152/152/76 150/150/76
f 151/153/77 154/154/77 152/152/77
f 153/155/78 156/156/78 154/154/78
f 155/157/79 158/158/79 156/156/79
f 157/159/80 160/160/80 158/158/80
f 159/161/81 162/162/81 160/160/81
f 161/163/82 164/164/82 162/162/82
f 163/165/83 166/166/83 164/164/83
f 165/167/84 168/168/84 166/166/84
f 167/169/85 170/170/85 168/168/85
f 169/171/86 172/172/86 170/170/86
f 171/173/87 174/174/87 172/172/87
f 173/175/88 176/176/88 174/174/88
f 175/177/89 178/178/89 176/176/89
f 177/179/90 180/180/90 178/178/90
f 179/181/91 182/182/91 180/180/91
f 181/183/92 184/184/92 182/182/92
f 183/185/93 186/186/93 184/184/93
f 185/187/94 188/188/94 186/186/94
f 187/189/95 190/190/95 188/188/95
f 189/191/96 192/192/96 190/190/96
f 191/193/97 194/194/97 192/192/97
f 193/195/98 196/196/98 194/194/98
f 195/197/99 198/198/99 196/196/99
f 197/199/100 200/200/100 198/198/100
f 199/201/101 202/202/101 200/200/101
f 201/203/102 204/204/102 202/202/102
f 203/205/103 206/206/103 204/204/103
f 205/207/104 208/208/104 206/206/104
f 207/209/105 210/210/105 208/208/105
f 209/211/106 212/212/106 210/210/106
f 211/213/107 214/214/107 212/212/107
f 213/215/108 216/216/108 214/214/108
f 215/217/109 218/218/109 216/216/109
f 217/219/110 220/220/110 218/218/110
f 219/221/111 222/222/111 220/220/111
f 222/222/112 223/223/112 224/224/112
f 225/225/113 228/226/113 226/227/113
f 228/226/114 229/228/114 230/229/114
f 230/229/115 231/230/115 232/231/115
f 232/231/116 233/232/116 234/233/116
f 234/233/117 235/234/117 236/235/117
f 236/235/118 237/236/118 238/237/118
f 238/237/119 239/238/119 240/239/119
f 240/239/120 241/240/120 242/241/120
f 242/241/121 243/242/121 244/243/121
f 244/243/122 245/244/122 246/245/122
f 246/245/123 247/246/123 248/247/123
f 248/247/124 249/248/124 250/249/124
f 250/249/125 251/250/125 252/1/125
f 252/1/1 251/250/1 1/2/1
f 2/3/2 1/2/2 3/4/2
f 4/5/3 3/4/3 5/6/3
f 6/7/4 5/6/4 7/8/4
f 8/9/5 7/8/5 9/10/5
f 10/11/6 9/10/6 11/12/6
f 12/13/7 11/12/7 13/14/7
f 14/15/8 13/14/8 15/16/8
f 16/17/9 15/16/9 17/18/9
f 18/19/10 17/18/10 19/20/10
f 20/21/11 19/20/11 21/22/11
f 22/23/12 21/22/12 23/24/12
f 24/25/13 23/24/13 25/26/13
f 26/27/14 25/26/14 27/28/14
f 28/29/15 27/28/15 29/30/15
f 30/31/16 29/30/16 31/32/16
f 32/33/17 31/32/17 33/34/17
f 34/35/18 33/34/18 35/36/18
f 36/37/19 35/36/19 37/38/19
f 38/39/20 37/38/20 39/40/20
f 40/41/21 39/40/21 41/42/21
f 42/43/22 41/42/22 43/44/22
f 44/45/23 43/44/23 45/46/23
f 46/47/24 45/46/24 47/48/24
f 48/49/25 47/48/25 49/50/25
f 50/51/26 49/50/26 51/52/26
f 52/53/27 51/52/27 53/54/27
f 54/55/28 53/54/28 55/56/28
f 56/57/29 55/56/29 57/58/29
f 58/59/30 57/58/30 59/60/30
f 60/61/31 59/60/31 61/62/31
f 62/63/32 61/62/32 63/64/32
f 64/65/33 63/64/33 65/66/33
f 66/67/34 65/66/34 67/68/34
f 68/69/35 67/68/35 69/70/35
f 70/71/36 69/70/36 71/72/36
f 72/73/37 71/72/37 73/74/37
f 74/75/38 73/74/38 75/76/38
f 76/77/39 75/76/39 77/78/39
f 78/79/40 77/78/40 79/80/40
f 80/81/41 79/80/41 81/82/41
f 82/83/42 81/82/42 83/84/42
f 84/85/43 83/84/43 85/86/43
f 86/87/44 85/86/44 87/88/44
f 88/89/45 87/88/45 89/90/45
f 90/91/46 89/90/46 91/92/46
f 92/93/47 91/92/47 93/94/47
f 94/95/48 93/94/48 95/96/48
f 96/97/49 95/96/49 97/98/49
f 98/99/50 97/98/50 99/100/50
f 99/100/51 101/103/51 102/102/51
f 101/103/52 103/105/52 104/104/52
f 103/105/53 105/107/53 106/106/53
f 105/107/54 107/109/54 108/108/54
f 107/109/55 109/111/55 110/110/55
f 109/111/56 111/113/56 112/112/56
f 111/113/57 113/115/57 114/114/57
f 113/115/58 115/117/58 116/116/58
f 115/117/59 117/119/59 118/118/59
f 117/119/60 119/121/60 120/120/60
f 119/121/61 121/123/61 122/122/61
f 121/123/62 123/125/62 124/124/62
f 123/125/63 125/127/63 126/126/63
f 125/127/64 127/129/64 128/128/64
f 127/129/65 129/131/65 130/130/65
f 129/131/66 131/133/66 132/132/66
f 131/133/67 133/135/67 134/134/67
f 133/135/68 135/137/68 136/136/68
f 135/137/69 137/139/69 138/138/69
f 137/139/70 139/141/70 140/140/70
f 139/141/71 141/143/71 142/142/71
f 141/143/72 143/145/72 144/144/72
f 143/145/73 145/147/73 146/146/73
f 145/147/74 147/149/74 148/148/74
f 147/149/75 149/151/75 150/150/75
f 149/151/76 151/153/76 152/152/76
f 151/153/77 153/155/77 154/154/77
f 153/155/78 155/157/78 156/156/78
f 155/157/79 157/159/79 158/158/79
f 157/159/80 159/161/80 160/160/80
f 159/161/81 161/163/81 162/162/81
f 161/163/82 163/165/82 164/164/82
f 163/165/83 165/167/83 166/166/83
f 165/167/84 167/169/84 168/168/84
f 167/169/85 169/171/85 170/170/85
f 169/171/86 171/173/86 172/172/86
f 171/173/87 173/175/87 174/174/87
f 173/175/88 175/177/88 176/176/88
f 175/177/89 177/179/89 178/178/89
f 177/179/90 179/181/90 180/180/90
f 179/181/91 181/183/91 182/182/91
f 181/183/92 183/185/92 184/184/92
f 183/185/93 185/187/93 186/186/93
f 185/187/94 187/189/94 188/188/94
f 187/189/95 189/191/95 190/190/95
f 189/191/96 191/193/96 192/192/96
f 191/193/97 193/195/97 194/194/97
f 193/195/98 195/197/98 196/196/98
f 195/197/99 197/199/99 198/198/99
f 197/199/100 199/201/100 200/200/100
f 199/201/101 201/203/101 202/202/101
f 201/203/102 203/205/102 204/204/102
f 203/205/103 205/207/103 206/206/103
f 205/207/104 207/209/104 208/208/104
f 207/209/105 209/211/105 210/210/105
f 209/211/106 211/213/106 212/212/106
f 211/213/107 213/215/107 214/214/107
f 213/215/108 215/217/108 216/216/108
f 215/217/109 217/219/109 218/218/109
f 217/219/110 219/221/110 220/220/110
f 219/221/111 221/251/111 222/222/111
f 222/222/126 221/251/126 223/223/126
f 225/225/127 227/252/127 228/226/127
f 228/226/114 227/252/114 229/228/114
f 230/229/115 229/228/115 231/230/115
f 232/231/116 231/230/116 233/232/116
f 234/233/117 233/232/117 235/234/117
f 236/235/118 235/234/118 237/236/118
f 238/237/119 237/236/119 239/238/119
f 240/239/120 239/238/120 241/240/120
f 242/241/121 241/240/121 243/242/121
f 244/243/122 243/242/122 245/244/122
f 246/245/123 245/244/123 247/246/123
f 248/247/124 247/246/124 249/248/124
f 250/249/125 249/248/125 251/250/125
