# Blender v2.79 (sub 0) OBJ File: 'untitled.blend1'
# www.blender.org
mtllib jupRing.mtl
o Sphere.001
v 0.000000 0.129663 -1.250973
v 0.117489 0.232219 -2.360521
v 0.000910 0.232504 -2.363366
v 0.061711 0.129512 -1.249466
v 0.233787 0.231364 -2.351985
v 0.123273 0.129059 -1.244948
v 0.349525 0.229940 -2.337780
v 0.184538 0.128306 -1.237429
v 0.464423 0.227953 -2.317943
v 0.245358 0.127253 -1.226928
v 0.578204 0.225406 -2.292520
v 0.305588 0.125905 -1.213470
v 0.690594 0.222305 -2.261572
v 0.365081 0.124264 -1.197088
v 0.801323 0.218658 -2.225175
v 0.423695 0.122333 -1.177821
v 0.910124 0.214474 -2.183414
v 0.481288 0.120118 -1.155716
v 1.016734 0.209763 -2.136393
v 0.537722 0.117625 -1.130825
v 1.120897 0.204536 -2.084224
v 0.592860 0.114858 -1.103209
v 1.222362 0.198806 -2.027031
v 0.646570 0.111824 -1.072935
v 1.320884 0.192586 -1.964952
v 0.698722 0.108532 -1.040074
v 1.416227 0.185891 -1.898139
v 0.749191 0.104988 -1.004707
v 1.508159 0.178739 -1.826752
v 0.797855 0.101202 -0.966918
v 1.596461 0.171145 -1.750962
v 0.844597 0.097183 -0.926799
v 1.680919 0.163129 -1.670952
v 0.889305 0.092939 -0.884446
v 1.761329 0.154709 -1.586915
v 0.931870 0.088482 -0.839962
v 1.837499 0.145906 -1.499053
v 0.972190 0.083822 -0.793452
v 1.909244 0.136741 -1.407579
v 1.010167 0.078971 -0.745031
v 1.976393 0.127236 -1.312711
v 1.045712 0.073939 -0.694813
v 2.038781 0.117413 -1.214680
v 1.078737 0.068740 -0.642921
v 2.096260 0.107298 -1.113720
v 1.109163 0.063385 -0.589478
v 2.148692 0.096914 -1.010076
v 1.136917 0.057889 -0.534615
v 2.195948 0.086285 -0.903996
v 1.161932 0.052262 -0.478462
v 2.237918 0.075439 -0.795738
v 1.184149 0.046521 -0.421156
v 2.274498 0.064400 -0.685560
v 1.203512 0.040677 -0.362834
v 2.305600 0.053195 -0.573730
v 1.219976 0.034746 -0.303637
v 2.331151 0.041852 -0.460516
v 1.233501 0.028742 -0.243708
v 2.351088 0.030397 -0.346190
v 1.244054 0.022678 -0.183190
v 2.365363 0.018859 -0.231029
v 1.251611 0.016571 -0.122230
v 2.373941 0.007264 -0.115310
v 1.256152 0.010433 -0.060975
v 2.376803 -0.004357 0.000689
v 1.257667 0.004281 0.000428
v 2.373941 -0.015980 0.116688
v 1.256152 -0.001871 0.061832
v 2.365363 -0.027574 0.232407
v 1.251611 -0.008009 0.123087
v 2.351088 -0.039112 0.347568
v 1.244054 -0.014116 0.184047
v 2.331151 -0.050567 0.461894
v 1.233501 -0.020180 0.244565
v 2.305601 -0.061910 0.575108
v 1.219976 -0.026184 0.304494
v 2.274498 -0.073115 0.686939
v 1.203512 -0.032115 0.363691
v 2.237919 -0.084154 0.797116
v 1.184148 -0.037959 0.422013
v 2.195950 -0.095001 0.905375
v 1.161932 -0.043700 0.479319
v 2.148692 -0.105629 1.011454
v 1.136917 -0.049326 0.535471
v 2.096262 -0.116014 1.115098
v 1.109163 -0.054823 0.590335
v 2.038782 -0.126129 1.216058
v 1.078737 -0.060178 0.643777
v 1.976393 -0.135951 1.314089
v 1.045712 -0.065377 0.695670
v 1.909246 -0.145456 1.408957
v 1.010167 -0.070409 0.745887
v 1.837502 -0.154621 1.500431
v 0.972189 -0.075260 0.794309
v 1.761332 -0.163424 1.588293
v 0.931869 -0.079920 0.840818
v 1.680921 -0.171844 1.672330
v 0.889304 -0.084377 0.885303
v 1.596463 -0.179861 1.752340
v 0.844597 -0.088621 0.927656
v 1.508161 -0.187454 1.828130
v 0.749191 -0.096426 1.005563
v 1.416228 -0.194607 1.899518
v 0.698722 -0.099970 1.040931
v 1.320886 -0.201301 1.966331
v 0.646569 -0.103262 1.073791
v 1.222364 -0.207521 2.028410
v 0.592860 -0.106296 1.104066
v 1.120899 -0.213251 2.085603
v 0.537721 -0.109063 1.131682
v 1.016735 -0.218478 2.137773
v 0.481288 -0.111556 1.156572
v 0.910125 -0.223189 2.184794
v 0.423695 -0.113771 1.178678
v 0.801324 -0.227374 2.226554
v 0.365081 -0.115702 1.197945
v 0.690595 -0.231021 2.262952
v 0.305588 -0.117343 1.214327
v 0.578205 -0.234121 2.293900
v 0.245358 -0.118691 1.227784
v 0.464423 -0.236668 2.319323
v 0.184538 -0.119743 1.238285
v 0.349525 -0.238656 2.339160
v 0.123272 -0.120497 1.245804
v 0.233787 -0.240079 2.353364
v 0.061710 -0.120949 1.250322
v 0.117489 -0.240934 2.361900
v -0.000001 -0.121100 1.251830
v 0.000909 -0.241220 2.364748
v -0.061711 -0.120949 1.250322
v -0.115671 -0.240934 2.361900
v -0.123273 -0.120497 1.245804
v -0.231969 -0.240079 2.353364
v -0.184539 -0.119743 1.238285
v -0.347707 -0.238656 2.339160
v -0.245359 -0.118691 1.227784
v -0.462605 -0.236668 2.319323
v -0.305589 -0.117343 1.214327
v -0.576386 -0.234121 2.293900
v -0.365082 -0.115702 1.197945
v -0.688777 -0.231021 2.262951
v -0.423696 -0.113771 1.178678
v -0.799506 -0.227374 2.226554
v -0.481289 -0.111556 1.156572
v -0.908307 -0.223189 2.184794
v -0.537722 -0.109063 1.131682
v -1.014917 -0.218478 2.137773
v -0.592860 -0.106296 1.104066
v -1.119080 -0.213251 2.085603
v -0.646570 -0.103262 1.073791
v -1.220545 -0.207521 2.028409
v -0.698723 -0.099970 1.040931
v -1.319068 -0.201301 1.966331
v -0.749192 -0.096426 1.005563
v -1.414410 -0.194607 1.899518
v -0.797856 -0.092640 0.967775
v -1.506343 -0.187454 1.828130
v -0.844598 -0.088621 0.927655
v -1.594644 -0.179861 1.752340
v -0.889305 -0.084377 0.885302
v -1.679102 -0.171844 1.672330
v -0.931870 -0.079920 0.840818
v -1.759513 -0.163424 1.588293
v -0.972190 -0.075260 0.794309
v -1.835682 -0.154621 1.500431
v -1.010168 -0.070409 0.745887
v -1.907427 -0.145456 1.408956
v -1.045712 -0.065377 0.695669
v -1.974575 -0.135951 1.314089
v -1.078737 -0.060178 0.643777
v -2.036963 -0.126129 1.216057
v -1.109163 -0.054823 0.590335
v -2.094442 -0.116014 1.115098
v -1.136918 -0.049326 0.535471
v -2.146873 -0.105629 1.011454
v -1.161933 -0.043700 0.479319
v -2.194130 -0.095001 0.905374
v -1.184149 -0.037959 0.422013
v -2.236099 -0.084154 0.797116
v -1.203512 -0.032115 0.363691
v -2.272679 -0.073115 0.686939
v -1.219976 -0.026184 0.304494
v -2.303781 -0.061910 0.575108
v -1.233501 -0.020180 0.244564
v -2.329332 -0.050567 0.461893
v -1.244055 -0.014116 0.184047
v -2.349269 -0.039112 0.347568
v -1.251611 -0.008008 0.123087
v -2.363543 -0.027574 0.232407
v -1.256152 -0.001871 0.061831
v -2.372122 -0.015980 0.116688
v -1.257667 0.004281 0.000428
v -2.374983 -0.004357 0.000689
v -1.256152 0.010433 -0.060975
v -2.372122 0.007264 -0.115310
v -1.251611 0.016571 -0.122231
v -2.363543 0.018859 -0.231029
v -1.244055 0.022678 -0.183191
v -2.349268 0.030397 -0.346190
v -1.233501 0.028742 -0.243708
v -2.329331 0.041852 -0.460516
v -1.219976 0.034746 -0.303638
v -2.303780 0.053195 -0.573730
v -1.203512 0.040677 -0.362835
v -2.272678 0.064400 -0.685560
v -1.184149 0.046521 -0.421156
v -2.236098 0.075439 -0.795738
v -1.161933 0.052262 -0.478463
v -2.194129 0.086285 -0.903996
v -1.136917 0.057889 -0.534615
v -2.146871 0.096914 -1.010076
v -1.109163 0.063386 -0.589478
v -2.094440 0.107298 -1.113719
v -1.078737 0.068740 -0.642921
v -2.036961 0.117413 -1.214679
v -1.045712 0.073939 -0.694813
v -1.974572 0.127236 -1.312710
v -1.010167 0.078971 -0.745031
v -1.907424 0.136741 -1.407578
v -0.972190 0.083822 -0.793453
v -1.835679 0.145906 -1.499052
v -0.931870 0.088482 -0.839962
v -1.759510 0.154709 -1.586914
v -0.857494 0.095207 -0.913292
v -1.580241 0.171821 -1.761384
v -0.857793 0.096007 -0.915069
v -1.319064 0.192586 -1.964952
v -1.627813 0.168599 -1.725553
v -0.698722 0.108532 -1.040074
v -1.220543 0.198806 -2.027029
v -0.646570 0.111824 -1.072934
v -1.119078 0.204536 -2.084222
v -0.592860 0.114858 -1.103209
v -1.014915 0.209763 -2.136391
v -0.537722 0.117625 -1.130825
v -0.908304 0.214474 -2.183414
v -0.481288 0.120118 -1.155716
v -0.799504 0.218658 -2.225173
v -0.423695 0.122333 -1.177821
v -0.688775 0.222305 -2.261571
v -0.365081 0.124264 -1.197088
v -0.576384 0.225406 -2.292518
v -0.305588 0.125905 -1.213470
v -0.462603 0.227953 -2.317941
v -0.245359 0.127253 -1.226928
v -0.347706 0.229940 -2.337779
v -0.184538 0.128305 -1.237428
v -0.231968 0.231363 -2.351982
v -0.123273 0.129059 -1.244947
v -0.115670 0.232219 -2.360518
v -0.061711 0.129512 -1.249465
v 0.797855 -0.092640 0.967775
vt -0.001069 0.833555
vt 0.996521 0.923744
vt 0.996379 0.931653
vt -0.001041 0.826732
vt 0.996651 0.915620
vt -0.001017 0.819831
vt 0.996768 0.907302
vt -0.000999 0.812868
vt 0.996873 0.898808
vt -0.000987 0.805860
vt 0.996965 0.890161
vt -0.000979 0.798825
vt 0.997043 0.881379
vt -0.000736 0.757023
vt 0.997108 0.872486
vt -0.000689 0.750609
vt 0.997159 0.863501
vt -0.000646 0.744060
vt 0.997197 0.854447
vt -0.000609 0.737391
vt 0.997221 0.845346
vt -0.000578 0.730618
vt 0.997231 0.836219
vt -0.000551 0.723759
vt 0.997227 0.827089
vt -0.000530 0.716828
vt 0.997209 0.817977
vt -0.000515 0.709844
vt 0.997178 0.808905
vt -0.000892 0.678674
vt 0.997133 0.799896
vt -0.000871 0.671746
vt 0.997074 0.790970
vt -0.000855 0.664763
vt 0.997002 0.782150
vt -0.000845 0.657742
vt 0.996916 0.773457
vt -0.000840 0.650701
vt 0.996818 0.764911
vt -0.000841 0.643655
vt 0.996706 0.756534
vt -0.000847 0.636623
vt 0.996582 0.748345
vt -0.000858 0.629620
vt 0.996446 0.740364
vt -0.000876 0.622664
vt 0.996297 0.732610
vt -0.000898 0.615772
vt 0.996137 0.725102
vt -0.000926 0.608961
vt 0.996431 0.714258
vt -0.000959 0.602245
vt 0.996703 0.711843
vt -0.000998 0.595643
vt 0.996971 0.708999
vt -0.000928 0.581585
vt 0.997236 0.705732
vt -0.000823 0.579062
vt 0.997494 0.702051
vt -0.000720 0.576219
vt 0.997747 0.697965
vt -0.000619 0.573064
vt 0.997993 0.693482
vt -0.000521 0.569603
vt 0.998233 0.688615
vt -0.000426 0.565845
vt 0.998464 0.683374
vt -0.000333 0.561799
vt 0.998688 0.677773
vt -0.000244 0.557475
vt 0.998903 0.671824
vt -0.000159 0.552883
vt 0.999108 0.665543
vt -0.000077 0.548034
vt 0.999304 0.658944
vt 0.000001 0.542940
vt 0.999490 0.652043
vt 0.000076 0.537614
vt 0.999664 0.644857
vt 0.000145 0.532068
vt 0.999828 0.637404
vt 0.000211 0.526315
vt 0.999981 0.629700
vt 0.000272 0.520369
vt 0.999844 0.616640
vt 0.000373 0.499543
vt 0.999972 0.608493
vt 0.000425 0.493256
vt 1.000088 0.600153
vt 0.000471 0.486820
vt 1.000191 0.591641
vt 0.000512 0.480251
vt 1.000281 0.582977
vt 0.000549 0.473564
vt 1.000358 0.574182
vt 0.000580 0.466777
vt 1.000421 0.565277
vt 0.000605 0.459906
vt 1.000471 0.556283
vt 0.000625 0.452966
vt 1.000507 0.547223
vt 0.000650 0.438948
vt 1.000529 0.538117
vt 0.000653 0.431904
vt 1.000538 0.528989
vt 0.000652 0.424860
vt 1.000532 0.519859
vt 0.000843 0.413481
vt 1.000513 0.510751
vt 0.000830 0.406486
vt 1.000570 0.492062
vt 0.000812 0.399541
vt 1.000523 0.483061
vt 0.000788 0.392664
vt 1.000463 0.474147
vt 0.000759 0.385869
vt 1.000389 0.465340
vt 0.000725 0.379174
vt 1.000302 0.456663
vt 0.000686 0.372595
vt 1.000202 0.448135
vt 0.000641 0.366148
vt 1.000089 0.439778
vt 0.000592 0.359848
vt 0.999963 0.431612
vt 0.000537 0.353711
vt 0.999825 0.423656
vt 0.000600 0.333201
vt 0.999532 0.410064
vt 0.000536 0.327432
vt 0.999536 0.400932
vt 0.000468 0.321869
vt 0.999525 0.391808
vt 0.000396 0.316525
vt 0.999501 0.382713
vt 0.000319 0.311412
vt 0.999463 0.373669
vt 0.000238 0.306544
vt 0.999411 0.364699
vt 0.000154 0.301931
vt 0.999345 0.355822
vt 0.000066 0.297585
vt 0.999267 0.347061
vt 0.000256 0.281223
vt 0.999106 0.331118
vt 0.000227 0.274440
vt 0.999103 0.321987
vt 0.000192 0.267760
vt 0.999086 0.312873
vt 0.000151 0.261198
vt 0.999055 0.303799
vt 0.000106 0.254770
vt 0.999011 0.294786
vt 0.000056 0.248491
vt 0.998953 0.285856
vt 0.000001 0.242376
vt 0.998881 0.277030
vt -0.000059 0.236441
vt 0.998796 0.268330
vt -0.000123 0.230699
vt 0.998698 0.259776
vt -0.000192 0.225164
vt 0.998587 0.251390
vt -0.000215 0.195413
vt 0.998488 0.243764
vt -0.000147 0.189783
vt 0.998392 0.230590
vt -0.000083 0.183951
vt 0.998483 0.221935
vt -0.000024 0.177933
vt 0.998560 0.213146
vt 0.000030 0.171742
vt 0.998624 0.204247
vt 0.000080 0.165393
vt 0.998675 0.195258
vt 0.000124 0.158902
vt 0.998712 0.186201
vt 0.000163 0.152284
vt 0.998735 0.177098
vt 0.000198 0.145556
vt 0.998744 0.167970
vt 0.000227 0.138733
vt 0.998740 0.158840
vt 0.000250 0.131832
vt 0.998721 0.149730
vt 0.000268 0.124869
vt 0.998689 0.140661
vt 0.000281 0.117862
vt 0.998643 0.131656
vt 0.000288 0.110827
vt 0.998584 0.122736
vt 0.000289 0.103781
vt 0.998511 0.113922
vt 0.000285 0.096741
vt 0.998425 0.105237
vt 0.000276 0.089724
vt 0.998325 0.096700
vt 0.000261 0.082748
vt 0.998213 0.088332
vt 0.000241 0.075828
vt 0.998088 0.080154
vt 0.000215 0.068981
vt 0.997951 0.072185
vt 0.000184 0.062225
vt 0.997802 0.064445
vt 0.000148 0.055574
vt 0.997642 0.056952
vt 0.000106 0.049046
vt 0.997470 0.049723
vt 0.000060 0.042656
vt 0.997287 0.042778
vt 0.000008 0.036419
vt 0.997094 0.036131
vt -0.000048 0.030351
vt 0.996891 0.029800
vt -0.000109 0.024465
vt 0.996679 0.023799
vt -0.000175 0.018777
vt 0.996458 0.018143
vt -0.000245 0.013300
vt 0.996229 0.012846
vt -0.000319 0.008046
vt 0.995992 0.007921
vt -0.000397 0.003030
vt 0.995747 0.003378
vt -0.000983 0.946312
vt 0.993880 1.003550
vt 0.993621 1.007184
vt -0.000979 0.939269
vt 0.994134 0.999509
vt -0.000980 0.932224
vt 0.994381 0.995072
vt -0.000988 0.925196
vt 0.994579 0.989927
vt -0.001000 0.918201
vt 0.994854 0.985050
vt -0.001018 0.911256
vt 0.995078 0.979489
vt -0.001042 0.904378
vt 0.995294 0.973580
vt -0.001071 0.897583
vt 0.995501 0.967336
vt -0.001105 0.890887
vt 0.995698 0.960773
vt -0.001144 0.884308
vt 0.995885 0.953906
vt -0.001189 0.877860
vt 0.996061 0.946752
vt -0.001238 0.871559
vt 0.996226 0.939329
vt -0.001104 0.840284
vt 0.000640 0.445974
vn 0.0000 0.9958 0.0921
vn 0.0004 0.9958 0.0921
vn 0.0008 0.9957 0.0921
vn 0.0011 0.9957 0.0921
vn 0.0015 0.9957 0.0922
vn 0.0019 0.9957 0.0923
vn 0.0022 0.9957 0.0924
vn 0.0026 0.9957 0.0925
vn 0.0029 0.9957 0.0926
vn 0.0033 0.9957 0.0928
vn 0.0036 0.9957 0.0930
vn 0.0039 0.9956 0.0931
vn 0.0043 0.9956 0.0933
vn 0.0046 0.9956 0.0936
vn 0.0049 0.9956 0.0938
vn 0.0051 0.9956 0.0940
vn 0.0054 0.9955 0.0943
vn 0.0057 0.9955 0.0946
vn 0.0059 0.9955 0.0949
vn 0.0062 0.9954 0.0951
vn 0.0064 0.9954 0.0955
vn 0.0066 0.9954 0.0958
vn 0.0068 0.9953 0.0961
vn 0.0069 0.9953 0.0964
vn 0.0071 0.9953 0.0968
vn 0.0072 0.9952 0.0971
vn 0.0073 0.9952 0.0975
vn 0.0074 0.9952 0.0978
vn 0.0075 0.9951 0.0982
vn 0.0076 0.9951 0.0986
vn 0.0076 0.9951 0.0989
vn 0.0076 0.9950 0.0993
vn 0.0077 0.9950 0.0997
vn 0.0076 0.9950 0.1001
vn 0.0076 0.9949 0.1004
vn 0.0076 0.9949 0.1008
vn 0.0075 0.9948 0.1012
vn 0.0074 0.9948 0.1015
vn 0.0073 0.9948 0.1019
vn 0.0072 0.9947 0.1023
vn 0.0071 0.9947 0.1026
vn 0.0069 0.9947 0.1029
vn 0.0068 0.9946 0.1033
vn 0.0067 0.9946 0.1033
vn 0.0066 0.9946 0.1036
vn 0.0064 0.9946 0.1039
vn 0.0061 0.9945 0.1042
vn 0.0059 0.9945 0.1045
vn 0.0057 0.9945 0.1048
vn 0.0054 0.9944 0.1051
vn 0.0051 0.9944 0.1053
vn 0.0049 0.9944 0.1056
vn 0.0046 0.9944 0.1058
vn 0.0043 0.9944 0.1060
vn 0.0039 0.9943 0.1062
vn 0.0036 0.9943 0.1064
vn 0.0033 0.9943 0.1066
vn 0.0029 0.9943 0.1067
vn 0.0026 0.9943 0.1069
vn 0.0022 0.9943 0.1070
vn 0.0019 0.9942 0.1071
vn 0.0015 0.9942 0.1072
vn 0.0011 0.9942 0.1072
vn 0.0008 0.9942 0.1073
vn 0.0007 0.9942 0.1073
vn 0.0004 0.9942 0.1073
vn -0.0000 0.9942 0.1073
vn -0.0004 0.9942 0.1073
vn -0.0008 0.9942 0.1073
vn -0.0007 0.9942 0.1073
vn -0.0011 0.9942 0.1072
vn -0.0015 0.9942 0.1072
vn -0.0019 0.9942 0.1071
vn -0.0022 0.9943 0.1070
vn -0.0026 0.9943 0.1069
vn -0.0029 0.9943 0.1067
vn -0.0033 0.9943 0.1066
vn -0.0036 0.9943 0.1064
vn -0.0039 0.9943 0.1062
vn -0.0043 0.9944 0.1060
vn -0.0046 0.9944 0.1058
vn -0.0049 0.9944 0.1056
vn -0.0051 0.9944 0.1053
vn -0.0054 0.9944 0.1051
vn -0.0057 0.9945 0.1048
vn -0.0059 0.9945 0.1045
vn -0.0062 0.9945 0.1042
vn -0.0064 0.9946 0.1039
vn -0.0066 0.9946 0.1036
vn -0.0068 0.9946 0.1033
vn -0.0069 0.9947 0.1030
vn -0.0071 0.9947 0.1026
vn -0.0072 0.9947 0.1023
vn -0.0073 0.9948 0.1019
vn -0.0074 0.9948 0.1015
vn -0.0075 0.9948 0.1012
vn -0.0076 0.9949 0.1008
vn -0.0076 0.9949 0.1004
vn -0.0077 0.9950 0.1001
vn -0.0077 0.9950 0.0997
vn -0.0077 0.9950 0.0993
vn -0.0076 0.9951 0.0989
vn -0.0076 0.9951 0.0986
vn -0.0075 0.9951 0.0982
vn -0.0074 0.9952 0.0978
vn -0.0073 0.9952 0.0975
vn -0.0072 0.9952 0.0971
vn -0.0071 0.9953 0.0968
vn -0.0069 0.9953 0.0964
vn -0.0068 0.9953 0.0961
vn -0.0066 0.9954 0.0958
vn -0.0064 0.9954 0.0955
vn -0.0064 0.9954 0.0954
vn -0.0062 0.9954 0.0951
vn -0.0059 0.9955 0.0948
vn -0.0058 0.9955 0.0946
vn -0.0028 0.9958 0.0916
vn -0.0035 0.9957 0.0925
vn -0.0041 0.9956 0.0934
vn -0.0048 0.9956 0.0937
vn -0.0044 0.9956 0.0934
vn -0.0047 0.9956 0.0937
vn -0.0044 0.9956 0.0935
vn -0.0039 0.9956 0.0931
vn -0.0036 0.9957 0.0930
vn -0.0033 0.9957 0.0928
vn -0.0029 0.9957 0.0926
vn -0.0026 0.9957 0.0925
vn -0.0022 0.9957 0.0924
vn -0.0019 0.9957 0.0923
vn -0.0015 0.9957 0.0922
vn -0.0011 0.9957 0.0921
vn -0.0008 0.9958 0.0921
vn -0.0008 0.9957 0.0921
vn -0.0004 0.9958 0.0921
usemtl None
s 1
f 1/1/1 2/2/2 3/3/1
f 4/4/2 5/5/3 2/2/2
f 6/6/3 7/7/4 5/5/3
f 8/8/4 9/9/5 7/7/4
f 10/10/5 11/11/6 9/9/5
f 12/12/6 13/13/7 11/11/6
f 14/14/7 15/15/8 13/13/7
f 16/16/8 17/17/9 15/15/8
f 18/18/9 19/19/10 17/17/9
f 20/20/10 21/21/11 19/19/10
f 22/22/11 23/23/12 21/21/11
f 24/24/12 25/25/13 23/23/12
f 26/26/13 27/27/14 25/25/13
f 28/28/14 29/29/15 27/27/14
f 30/30/15 31/31/16 29/29/15
f 32/32/16 33/33/17 31/31/16
f 34/34/17 35/35/18 33/33/17
f 36/36/18 37/37/19 35/35/18
f 38/38/19 39/39/20 37/37/19
f 40/40/20 41/41/21 39/39/20
f 42/42/21 43/43/22 41/41/21
f 44/44/22 45/45/23 43/43/22
f 46/46/23 47/47/24 45/45/23
f 48/48/24 49/49/25 47/47/24
f 50/50/25 51/51/26 49/49/25
f 52/52/26 53/53/27 51/51/26
f 54/54/27 55/55/28 53/53/27
f 56/56/28 57/57/29 55/55/28
f 58/58/29 59/59/30 57/57/29
f 60/60/30 61/61/31 59/59/30
f 62/62/31 63/63/32 61/61/31
f 64/64/32 65/65/33 63/63/32
f 66/66/33 67/67/34 65/65/33
f 68/68/34 69/69/35 67/67/34
f 70/70/35 71/71/36 69/69/35
f 72/72/36 73/73/37 71/71/36
f 74/74/37 75/75/38 73/73/37
f 76/76/38 77/77/39 75/75/38
f 78/78/39 79/79/40 77/77/39
f 80/80/40 81/81/41 79/79/40
f 82/82/41 83/83/42 81/81/41
f 84/84/42 85/85/43 83/83/42
f 86/86/44 87/87/45 85/85/43
f 88/88/45 89/89/46 87/87/45
f 90/90/46 91/91/47 89/89/46
f 92/92/47 93/93/48 91/91/47
f 94/94/48 95/95/49 93/93/48
f 96/96/49 97/97/50 95/95/49
f 98/98/50 99/99/51 97/97/50
f 100/100/51 101/101/52 99/99/51
f 101/101/52 102/102/53 103/103/53
f 103/103/53 104/104/54 105/105/54
f 105/105/54 106/106/55 107/107/55
f 107/107/55 108/108/56 109/109/56
f 109/109/56 110/110/57 111/111/57
f 111/111/57 112/112/58 113/113/58
f 113/113/58 114/114/59 115/115/59
f 115/115/59 116/116/60 117/117/60
f 117/117/60 118/118/61 119/119/61
f 119/119/61 120/120/62 121/121/62
f 121/121/62 122/122/63 123/123/63
f 123/123/63 124/124/64 125/125/65
f 125/125/65 126/126/66 127/127/66
f 127/127/66 128/128/67 129/129/67
f 129/129/67 130/130/68 131/131/68
f 131/131/68 132/132/69 133/133/70
f 133/133/70 134/134/71 135/135/71
f 135/135/71 136/136/72 137/137/72
f 137/137/72 138/138/73 139/139/73
f 139/139/73 140/140/74 141/141/74
f 141/141/74 142/142/75 143/143/75
f 143/143/75 144/144/76 145/145/76
f 145/145/76 146/146/77 147/147/77
f 147/147/77 148/148/78 149/149/78
f 149/149/78 150/150/79 151/151/79
f 151/151/79 152/152/80 153/153/80
f 153/153/80 154/154/81 155/155/81
f 155/155/81 156/156/82 157/157/82
f 157/157/82 158/158/83 159/159/83
f 159/159/83 160/160/84 161/161/84
f 161/161/84 162/162/85 163/163/85
f 163/163/85 164/164/86 165/165/86
f 165/165/86 166/166/87 167/167/87
f 167/167/87 168/168/88 169/169/88
f 169/169/88 170/170/89 171/171/89
f 171/171/89 172/172/90 173/173/90
f 173/173/90 174/174/91 175/175/91
f 175/175/91 176/176/92 177/177/92
f 177/177/92 178/178/93 179/179/93
f 179/179/93 180/180/94 181/181/94
f 181/181/94 182/182/95 183/183/95
f 183/183/95 184/184/96 185/185/96
f 185/185/96 186/186/97 187/187/97
f 187/187/97 188/188/98 189/189/98
f 189/189/98 190/190/99 191/191/99
f 191/191/99 192/192/100 193/193/100
f 193/193/100 194/194/101 195/195/101
f 195/195/101 196/196/102 197/197/102
f 197/197/102 198/198/103 199/199/103
f 199/199/103 200/200/104 201/201/104
f 201/201/104 202/202/105 203/203/105
f 203/203/105 204/204/106 205/205/106
f 205/205/106 206/206/107 207/207/107
f 207/207/107 208/208/108 209/209/108
f 209/209/108 210/210/109 211/211/109
f 211/211/109 212/212/110 213/213/110
f 213/213/110 214/214/111 215/215/111
f 215/215/111 216/216/112 217/217/113
f 217/217/113 218/218/114 219/219/114
f 219/219/114 220/220/115 221/221/115
f 221/221/115 222/222/116 223/223/117
f 223/223/117 224/224/118 225/225/119
f 226/226/120 227/227/121 228/228/122
f 229/229/123 230/230/124 227/227/121
f 231/231/124 232/232/125 230/230/124
f 233/233/125 234/234/126 232/232/125
f 235/235/126 236/236/127 234/234/126
f 237/237/127 238/238/128 236/236/127
f 239/239/128 240/240/129 238/238/128
f 241/241/129 242/242/130 240/240/129
f 243/243/130 244/244/131 242/242/130
f 245/245/131 246/246/132 244/244/131
f 247/247/132 248/248/133 246/246/132
f 249/249/134 250/250/135 248/248/133
f 251/251/135 3/3/1 250/250/135
f 1/1/1 4/4/2 2/2/2
f 4/4/2 6/6/3 5/5/3
f 6/6/3 8/8/4 7/7/4
f 8/8/4 10/10/5 9/9/5
f 10/10/5 12/12/6 11/11/6
f 12/12/6 14/14/7 13/13/7
f 14/14/7 16/16/8 15/15/8
f 16/16/8 18/18/9 17/17/9
f 18/18/9 20/20/10 19/19/10
f 20/20/10 22/22/11 21/21/11
f 22/22/11 24/24/12 23/23/12
f 24/24/12 26/26/13 25/25/13
f 26/26/13 28/28/14 27/27/14
f 28/28/14 30/30/15 29/29/15
f 30/30/15 32/32/16 31/31/16
f 32/32/16 34/34/17 33/33/17
f 34/34/17 36/36/18 35/35/18
f 36/36/18 38/38/19 37/37/19
f 38/38/19 40/40/20 39/39/20
f 40/40/20 42/42/21 41/41/21
f 42/42/21 44/44/22 43/43/22
f 44/44/22 46/46/23 45/45/23
f 46/46/23 48/48/24 47/47/24
f 48/48/24 50/50/25 49/49/25
f 50/50/25 52/52/26 51/51/26
f 52/52/26 54/54/27 53/53/27
f 54/54/27 56/56/28 55/55/28
f 56/56/28 58/58/29 57/57/29
f 58/58/29 60/60/30 59/59/30
f 60/60/30 62/62/31 61/61/31
f 62/62/31 64/64/32 63/63/32
f 64/64/32 66/66/33 65/65/33
f 66/66/33 68/68/34 67/67/34
f 68/68/34 70/70/35 69/69/35
f 70/70/35 72/72/36 71/71/36
f 72/72/36 74/74/37 73/73/37
f 74/74/37 76/76/38 75/75/38
f 76/76/38 78/78/39 77/77/39
f 78/78/39 80/80/40 79/79/40
f 80/80/40 82/82/41 81/81/41
f 82/82/41 84/84/42 83/83/42
f 84/84/42 86/86/44 85/85/43
f 86/86/44 88/88/45 87/87/45
f 88/88/45 90/90/46 89/89/46
f 90/90/46 92/92/47 91/91/47
f 92/92/47 94/94/48 93/93/48
f 94/94/48 96/96/49 95/95/49
f 96/96/49 98/98/50 97/97/50
f 98/98/50 100/100/51 99/99/51
f 100/100/51 252/252/52 101/101/52
f 101/101/52 252/252/52 102/102/53
f 103/103/53 102/102/53 104/104/54
f 105/105/54 104/104/54 106/106/55
f 107/107/55 106/106/55 108/108/56
f 109/109/56 108/108/56 110/110/57
f 111/111/57 110/110/57 112/112/58
f 113/113/58 112/112/58 114/114/59
f 115/115/59 114/114/59 116/116/60
f 117/117/60 116/116/60 118/118/61
f 119/119/61 118/118/61 120/120/62
f 121/121/62 120/120/62 122/122/63
f 123/123/63 122/122/63 124/124/64
f 125/125/65 124/124/64 126/126/66
f 127/127/66 126/126/66 128/128/67
f 129/129/67 128/128/67 130/130/68
f 131/131/68 130/130/68 132/132/69
f 133/133/70 132/132/69 134/134/71
f 135/135/71 134/134/71 136/136/72
f 137/137/72 136/136/72 138/138/73
f 139/139/73 138/138/73 140/140/74
f 141/141/74 140/140/74 142/142/75
f 143/143/75 142/142/75 144/144/76
f 145/145/76 144/144/76 146/146/77
f 147/147/77 146/146/77 148/148/78
f 149/149/78 148/148/78 150/150/79
f 151/151/79 150/150/79 152/152/80
f 153/153/80 152/152/80 154/154/81
f 155/155/81 154/154/81 156/156/82
f 157/157/82 156/156/82 158/158/83
f 159/159/83 158/158/83 160/160/84
f 161/161/84 160/160/84 162/162/85
f 163/163/85 162/162/85 164/164/86
f 165/165/86 164/164/86 166/166/87
f 167/167/87 166/166/87 168/168/88
f 169/169/88 168/168/88 170/170/89
f 171/171/89 170/170/89 172/172/90
f 173/173/90 172/172/90 174/174/91
f 175/175/91 174/174/91 176/176/92
f 177/177/92 176/176/92 178/178/93
f 179/179/93 178/178/93 180/180/94
f 181/181/94 180/180/94 182/182/95
f 183/183/95 182/182/95 184/184/96
f 185/185/96 184/184/96 186/186/97
f 187/187/97 186/186/97 188/188/98
f 189/189/98 188/188/98 190/190/99
f 191/191/99 190/190/99 192/192/100
f 193/193/100 192/192/100 194/194/101
f 195/195/101 194/194/101 196/196/102
f 197/197/102 196/196/102 198/198/103
f 199/199/103 198/198/103 200/200/104
f 201/201/104 200/200/104 202/202/105
f 203/203/105 202/202/105 204/204/106
f 205/205/106 204/204/106 206/206/107
f 207/207/107 206/206/107 208/208/108
f 209/209/108 208/208/108 210/210/109
f 211/211/109 210/210/109 212/212/110
f 213/213/110 212/212/110 214/214/111
f 215/215/111 214/214/111 216/216/112
f 217/217/113 216/216/112 218/218/114
f 219/219/114 218/218/114 220/220/115
f 221/221/115 220/220/115 222/222/116
f 223/223/117 222/222/116 224/224/118
f 226/226/120 229/229/123 227/227/121
f 229/229/123 231/231/124 230/230/124
f 231/231/124 233/233/125 232/232/125
f 233/233/125 235/235/126 234/234/126
f 235/235/126 237/237/127 236/236/127
f 237/237/127 239/239/128 238/238/128
f 239/239/128 241/241/129 240/240/129
f 241/241/129 243/243/130 242/242/130
f 243/243/130 245/245/131 244/244/131
f 245/245/131 247/247/132 246/246/132
f 247/247/132 249/249/134 248/248/133
f 249/249/134 251/251/135 250/250/135
f 251/251/135 1/1/1 3/3/1
