# Blender v2.79 (sub 0) OBJ File: ''
# www.blender.org
mtllib bucket.mtl
o Cube.002
v 1.848999 -0.595985 1.046244
v 1.756549 -0.595985 1.073071
v 1.756549 -0.595985 1.046244
v 1.848999 -0.000000 1.046245
v 1.848999 -0.595985 1.073071
v -1.848999 -0.000000 1.046244
v -1.848999 2.085947 -1.046245
v -1.848999 0.000000 -1.046245
v -1.849000 -0.595985 1.046244
v -1.848999 -0.000000 1.073071
v -1.849000 -0.595985 -1.073071
v -1.848999 0.000000 -1.073071
v 1.849000 0.000000 -1.073070
v 1.848999 -0.595985 -1.046244
v 1.848999 -0.595985 -1.073071
v 1.756549 -0.595985 -1.046244
v 1.756549 -0.595985 -1.073071
v -1.849000 -0.595985 -1.046244
v 1.849000 0.000000 -1.046244
v -1.848999 2.085947 -1.073071
v -1.756550 -0.595985 -1.046244
v -1.756550 -0.000000 1.046244
v 1.756549 2.085947 1.046245
v 1.756549 -0.000000 1.046245
v -1.756550 -0.595985 -1.073071
v -1.756550 -0.000000 1.073071
v -1.849000 -0.595985 1.073071
v -1.756550 -0.595985 1.073071
v -1.756550 -0.595985 1.046244
v 1.756550 0.000000 -1.046244
v -1.756549 0.000000 -1.046245
v -1.756549 0.000000 -1.073071
v -1.756549 2.085947 -1.046245
v -1.756550 2.085947 1.046244
v -1.848999 2.085947 1.073071
v -1.756550 2.085947 1.073071
v 1.849000 2.085947 -1.046243
v 1.756550 2.085947 -1.046244
v -1.848999 2.085947 1.046244
v -1.756549 2.085947 -1.073071
v 1.848999 -0.000000 1.073071
v 1.756549 2.085947 1.073071
v 1.756549 -0.000000 1.073071
v 1.756550 0.000000 -1.073070
v 1.849000 2.085947 -1.073070
v 1.848999 2.085947 1.046245
v 1.848999 2.085947 1.073071
v 1.756550 2.085947 -1.073070
vt 0.497513 0.583801
vt 0.491450 0.574952
vt 0.497608 0.575087
vt 0.497513 0.583801
vt 0.491450 0.574953
vt 0.497608 0.575087
vt 0.497513 0.583801
vt 0.977542 0.624812
vt 0.977875 0.594315
vt 0.497608 0.575087
vt 0.491355 0.583666
vt 0.503767 0.575222
vt 0.497513 0.583801
vt 0.503671 0.583936
vt 0.503671 0.583936
vt 0.497608 0.575087
vt 0.503767 0.575222
vt 0.503671 0.583936
vt 0.497608 0.575087
vt 0.503767 0.575222
vt 0.509925 0.575357
vt 0.029468 0.573557
vt 0.509830 0.584071
vt 0.509830 0.584071
vt 0.029563 0.564843
vt 0.509925 0.575357
vt 0.515655 0.614703
vt 0.515988 0.584205
vt 0.509830 0.584070
vt 0.029563 0.564843
vt 0.509925 0.575357
vt 0.509925 0.575357
vt 0.029658 0.556130
vt 0.510020 0.566643
vt 0.503767 0.575222
vt 0.478592 0.905866
vt 0.500147 0.906338
vt 0.503767 0.575222
vt 0.497703 0.566374
vt 0.503862 0.566509
vt 0.503767 0.575222
vt 0.510020 0.566643
vt 0.509925 0.575357
vt 0.497608 0.575087
vt 0.491545 0.566239
vt 0.497704 0.566374
vt 0.509735 0.592784
vt 0.032992 0.251154
vt 0.513355 0.261668
vt 0.497608 0.575087
vt 0.974350 0.916717
vt 0.977971 0.585601
vt 0.503576 0.592649
vt 0.501038 0.261398
vt 0.507196 0.261533
vt 0.509925 0.575357
vt 0.503862 0.566509
vt 0.503767 0.575222
vt 0.497418 0.592514
vt 0.494879 0.261264
vt 0.501038 0.261398
vt 0.503767 0.575222
vt 0.485832 0.243635
vt 0.507387 0.244107
vt 0.497608 0.575087
vt 0.491545 0.566239
vt 0.491450 0.574953
vt 0.497418 0.592514
vt 0.977685 0.611742
vt 0.977780 0.603028
vt 0.497513 0.583801
vt 0.977780 0.603028
vt 0.977875 0.594315
vt 0.509830 0.584071
vt 0.509735 0.592784
vt 0.515893 0.592919
vt 0.509830 0.584071
vt 0.029134 0.604054
vt 0.029468 0.573557
vt 0.497179 0.614298
vt 0.497513 0.583801
vt 0.482021 0.592178
vt 0.503576 0.592649
vt 0.503671 0.583936
vt 0.482212 0.574750
vt 0.503767 0.575222
vt 0.503767 0.575222
vt 0.482117 0.583464
vt 0.029134 0.604054
vt 0.029468 0.573557
vt 0.503576 0.592649
vt 0.485642 0.261062
vt 0.507196 0.261533
vt 0.503672 0.583936
vt 0.509497 0.614568
vt 0.509830 0.584071
vt 0.491021 0.614164
vt 0.491354 0.583666
vt 0.482307 0.566037
vt 0.503862 0.566509
vt 0.478592 0.905866
vt 0.500147 0.906338
vt 0.497513 0.583801
vt 0.977542 0.624812
vt 0.977875 0.594315
vt 0.491354 0.583666
vt 0.497180 0.614298
vt 0.491450 0.574953
vt 0.497608 0.575087
vt 0.497513 0.583801
vt 0.029563 0.564843
vt 0.509497 0.614568
vt 0.029468 0.573557
vt 0.029563 0.564843
vt 0.482212 0.574750
vt 0.497608 0.575087
vt 0.509830 0.584070
vt 0.509735 0.592784
vt 0.509925 0.575357
vt 0.506305 0.906473
vt 0.491450 0.574953
vt 0.029372 0.582270
vt 0.493988 0.906203
vt 0.497418 0.592514
vt 0.509925 0.575357
vt 0.506305 0.906473
vt 0.509830 0.584070
vt 0.510020 0.566643
vt 0.491259 0.592380
vt 0.482212 0.574750
vt 0.503767 0.575222
vt 0.500147 0.906338
vt 0.509925 0.575357
vt 0.503576 0.592649
vt 0.503481 0.601363
vt 0.509735 0.592784
vt 0.487830 0.906068
vt 0.493988 0.906203
vt 0.503671 0.583936
vt 0.509830 0.584070
vt 0.509925 0.575357
vt 0.497704 0.566374
vt 0.497322 0.601228
vt 0.497418 0.592515
vt 0.509925 0.575357
vt 0.509830 0.584071
vt 0.515988 0.584205
vt 0.503671 0.583936
vt 0.503766 0.575222
vt 0.497608 0.575087
vt 0.507387 0.244107
vt 0.501228 0.243972
vt 0.509925 0.575357
vt 0.506305 0.906473
vt 0.512463 0.906607
vt 0.503671 0.583936
vt 0.497513 0.583801
vt 0.503576 0.592649
vt 0.509496 0.614568
vt 0.503338 0.614433
vt 0.482117 0.583464
vt 0.482117 0.583464
vt 0.482212 0.574750
vt 0.509496 0.614568
vt 0.482021 0.592177
vt 0.503338 0.614433
vt 0.497180 0.614298
vt 0.482212 0.574750
vt 0.482212 0.574750
vt 0.497180 0.614298
vn 0.0000 -1.0000 -0.0000
vn 1.0000 0.0000 0.0000
vn -1.0000 0.0000 -0.0000
vn 0.0000 0.0000 -1.0000
vn -0.0000 -0.0000 1.0000
vn 0.0000 1.0000 0.0000
usemtl Material.002
s 1
f 1/1/1 2/2/1 3/3/1
f 4/4/2 5/5/2 1/6/2
f 6/7/3 7/8/3 8/9/3
f 9/10/3 10/11/3 6/7/3
f 11/12/3 8/13/3 12/14/3
f 13/15/2 14/16/2 15/17/2
f 15/18/1 16/19/1 17/20/1
f 18/21/3 6/22/3 8/23/3
f 19/24/2 1/25/2 14/26/2
f 8/23/3 20/27/3 12/28/3
f 14/29/1 3/30/1 16/31/1
f 21/32/1 9/33/1 18/34/1
f 22/35/4 23/36/4 24/37/4
f 25/38/1 18/39/1 11/40/1
f 26/41/5 27/42/5 28/43/5
f 29/44/1 27/45/1 9/46/1
f 16/47/1 29/48/1 21/49/1
f 22/50/6 30/51/6 31/52/6
f 17/53/1 21/54/1 25/55/1
f 25/56/4 12/57/4 32/58/4
f 3/59/1 28/60/1 29/61/1
f 30/62/5 33/63/5 31/64/5
f 34/65/6 35/66/6 36/67/6
f 23/68/6 37/69/6 38/70/6
f 39/71/6 33/72/6 7/73/6
f 7/74/6 33/75/6 40/76/6
f 31/77/2 34/78/2 22/79/2
f 13/15/2 37/80/2 19/81/2
f 12/14/4 40/82/4 32/83/4
f 41/84/5 42/85/5 43/86/5
f 44/87/4 45/88/4 13/15/4
f 19/24/2 46/89/2 4/90/2
f 43/91/5 36/92/5 26/93/5
f 10/94/3 39/95/3 6/96/3
f 4/4/2 47/97/2 41/98/2
f 26/41/5 35/99/5 10/100/5
f 32/58/4 48/101/4 44/102/4
f 24/103/3 38/104/3 30/105/3
f 1/1/1 5/106/1 2/2/1
f 4/4/2 41/98/2 5/5/2
f 6/7/3 39/107/3 7/8/3
f 9/10/3 27/108/3 10/11/3
f 11/12/3 18/109/3 8/13/3
f 13/15/2 19/81/2 14/16/2
f 15/18/1 14/110/1 16/19/1
f 18/21/3 9/111/3 6/22/3
f 19/24/2 4/90/2 1/25/2
f 8/23/3 7/112/3 20/27/3
f 14/29/1 1/113/1 3/30/1
f 21/32/1 29/114/1 9/33/1
f 22/35/4 34/115/4 23/36/4
f 25/38/1 21/116/1 18/39/1
f 41/84/5 43/86/5 5/117/5
f 43/91/5 26/93/5 2/118/5
f 5/117/5 43/86/5 2/119/5
f 26/41/5 10/100/5 27/42/5
f 28/43/5 2/120/5 26/41/5
f 29/44/1 28/121/1 27/45/1
f 16/47/1 3/122/1 29/48/1
f 22/50/6 24/123/6 30/51/6
f 17/53/1 16/124/1 21/54/1
f 32/58/4 44/102/4 25/56/4
f 44/87/4 13/15/4 17/125/4
f 25/56/4 44/102/4 17/126/4
f 13/15/4 15/127/4 17/125/4
f 25/56/4 11/128/4 12/57/4
f 3/59/1 2/129/1 28/60/1
f 30/62/5 38/130/5 33/63/5
f 36/131/6 42/132/6 34/133/6
f 42/134/6 47/135/6 23/136/6
f 34/65/6 42/137/6 23/138/6
f 47/139/6 46/140/6 23/141/6
f 34/65/6 39/142/6 35/66/6
f 23/68/6 46/143/6 37/69/6
f 39/71/6 34/144/6 33/72/6
f 38/145/6 37/146/6 45/147/6
f 45/148/6 48/149/6 38/150/6
f 48/149/6 40/151/6 33/152/6
f 33/153/6 38/154/6 48/155/6
f 20/156/6 7/157/6 40/158/6
f 31/77/2 33/159/2 34/78/2
f 13/15/2 45/160/2 37/80/2
f 12/14/4 20/161/4 40/82/4
f 41/84/5 47/162/5 42/85/5
f 44/87/4 48/163/4 45/88/4
f 19/24/2 37/164/2 46/89/2
f 43/91/5 42/165/5 36/92/5
f 10/94/3 35/166/3 39/95/3
f 4/4/2 46/167/2 47/97/2
f 26/41/5 36/168/5 35/99/5
f 32/58/4 40/169/4 48/101/4
f 24/103/3 23/170/3 38/104/3
