# Blender v2.79 (sub 0) OBJ File: ''
# www.blender.org
mtllib disk.mtl
o Cylinder
v 0.000000 -1.000000 -0.100000
v 0.098017 -0.995185 0.100000
v 0.000000 -1.000000 0.100000
v 0.098017 -0.995185 -0.100000
v 0.195090 -0.980785 0.100000
v 0.195090 -0.980785 -0.100000
v 0.290285 -0.956940 0.100000
v 0.290285 -0.956940 -0.100000
v 0.382683 -0.923879 0.100000
v 0.382683 -0.923879 -0.100000
v 0.471397 -0.881921 0.100000
v 0.471397 -0.881921 -0.100000
v 0.555570 -0.831470 0.100000
v 0.555570 -0.831470 -0.100000
v 0.634393 -0.773010 0.100000
v 0.634393 -0.773010 -0.100000
v 0.707107 -0.707107 0.100000
v 0.707107 -0.707107 -0.100000
v 0.773010 -0.634393 0.100000
v 0.773010 -0.634393 -0.100000
v 0.831470 -0.555570 0.100000
v 0.831470 -0.555570 -0.100000
v 0.881921 -0.471397 0.100000
v 0.881921 -0.471397 -0.100000
v 0.923880 -0.382683 0.100000
v 0.923880 -0.382683 -0.100000
v 0.956940 -0.290285 0.100000
v 0.956940 -0.290285 -0.100000
v 0.980785 -0.195090 0.100000
v 0.980785 -0.195090 -0.100000
v 0.995185 -0.098017 0.100000
v 0.995185 -0.098017 -0.100000
v 1.000000 0.000000 0.100000
v 1.000000 0.000000 -0.100000
v 0.995185 0.098017 0.100000
v 0.995185 0.098017 -0.100000
v 0.980785 0.195091 0.100000
v 0.980785 0.195091 -0.100000
v 0.956940 0.290285 0.100000
v 0.956940 0.290285 -0.100000
v 0.923879 0.382684 0.100000
v 0.923879 0.382684 -0.100000
v 0.881921 0.471397 0.100000
v 0.881921 0.471397 -0.100000
v 0.831469 0.555570 0.100000
v 0.831469 0.555570 -0.100000
v 0.773010 0.634394 0.100000
v 0.773010 0.634394 -0.100000
v 0.707106 0.707107 0.100000
v 0.707106 0.707107 -0.100000
v 0.634393 0.773011 0.100000
v 0.634393 0.773011 -0.100000
v 0.555570 0.831470 0.100000
v 0.555570 0.831470 -0.100000
v 0.471396 0.881921 0.100000
v 0.471396 0.881921 -0.100000
v 0.382683 0.923880 0.100000
v 0.382683 0.923880 -0.100000
v 0.290284 0.956940 0.100000
v 0.290284 0.956940 -0.100000
v 0.195090 0.980785 0.100000
v 0.195090 0.980785 -0.100000
v 0.098016 0.995185 0.100000
v 0.098016 0.995185 -0.100000
v -0.000001 1.000000 0.100000
v -0.000001 1.000000 -0.100000
v -0.098018 0.995185 0.100000
v -0.098018 0.995185 -0.100000
v -0.195091 0.980785 0.100000
v -0.195091 0.980785 -0.100000
v -0.290286 0.956940 0.100000
v -0.290286 0.956940 -0.100000
v -0.382684 0.923879 0.100000
v -0.382684 0.923879 -0.100000
v -0.471398 0.881921 0.100000
v -0.471398 0.881921 -0.100000
v -0.555571 0.831469 0.100000
v -0.555571 0.831469 -0.100000
v -0.634394 0.773010 0.100000
v -0.634394 0.773010 -0.100000
v -0.707108 0.707106 0.100000
v -0.707108 0.707106 -0.100000
v -0.773011 0.634392 0.100000
v -0.773011 0.634392 -0.100000
v -0.831470 0.555570 0.100000
v -0.831470 0.555570 -0.100000
v -0.881922 0.471396 0.100000
v -0.881922 0.471396 -0.100000
v -0.923880 0.382683 0.100000
v -0.923880 0.382683 -0.100000
v -0.956940 0.290285 0.100000
v -0.956940 0.290285 -0.100000
v -0.980785 0.195090 0.100000
v -0.980785 0.195090 -0.100000
v -0.995185 0.098017 0.100000
v -0.995185 0.098017 -0.100000
v -1.000000 0.000000 0.100000
v -1.000000 0.000000 -0.100000
v -0.995185 -0.098016 0.100000
v -0.995185 -0.098016 -0.100000
v -0.980785 -0.195089 0.100000
v -0.980785 -0.195089 -0.100000
v -0.956941 -0.290284 0.100000
v -0.956941 -0.290284 -0.100000
v -0.923880 -0.382682 0.100000
v -0.923880 -0.382682 -0.100000
v -0.881922 -0.471395 0.100000
v -0.881922 -0.471395 -0.100000
v -0.831471 -0.555569 0.100000
v -0.831471 -0.555569 -0.100000
v -0.773012 -0.634392 0.100000
v -0.773012 -0.634392 -0.100000
v -0.707108 -0.707105 0.100000
v -0.707108 -0.707105 -0.100000
v -0.634395 -0.773009 0.100000
v -0.634395 -0.773009 -0.100000
v -0.555572 -0.831468 0.100000
v -0.555572 -0.831468 -0.100000
v -0.471399 -0.881920 0.100000
v -0.471399 -0.881920 -0.100000
v -0.382686 -0.923878 0.100000
v -0.382686 -0.923878 -0.100000
v -0.290288 -0.956939 0.100000
v -0.290288 -0.956939 -0.100000
v -0.195093 -0.980785 0.100000
v -0.195093 -0.980785 -0.100000
v -0.098021 -0.995184 0.100000
v -0.098021 -0.995184 -0.100000
vt 0.670247 0.406959
vt 0.702733 0.388305
vt 0.709950 0.397170
vt 0.657017 0.398095
vt 0.690617 0.381706
vt 0.638839 0.391495
vt 0.665708 0.377433
vt 0.614155 0.387223
vt 0.602703 0.375530
vt 0.583214 0.385320
vt 0.511315 0.376014
vt 0.550371 0.385804
vt 0.468336 0.378880
vt 0.521697 0.388670
vt 0.450279 0.384102
vt 0.499784 0.393892
vt 0.440650 0.391628
vt 0.483818 0.401418
vt 0.434554 0.401387
vt 0.472131 0.411177
vt 0.430224 0.413284
vt 0.463355 0.423073
vt 0.426887 0.427204
vt 0.456561 0.436993
vt 0.424155 0.443014
vt 0.451145 0.452804
vt 0.421809 0.460561
vt 0.446707 0.470351
vt 0.419715 0.479677
vt 0.442983 0.489467
vt 0.417786 0.500177
vt 0.439788 0.509967
vt 0.415961 0.521864
vt 0.436994 0.531653
vt 0.414194 0.544529
vt 0.434505 0.554318
vt 0.412446 0.567953
vt 0.432250 0.577743
vt 0.410685 0.591912
vt 0.430173 0.601701
vt 0.408879 0.616174
vt 0.428230 0.625964
vt 0.406997 0.640506
vt 0.426383 0.650295
vt 0.405005 0.664673
vt 0.424599 0.674462
vt 0.402861 0.688443
vt 0.422847 0.698232
vt 0.400519 0.711586
vt 0.421095 0.721376
vt 0.397916 0.733881
vt 0.419309 0.743670
vt 0.394973 0.755111
vt 0.417448 0.764901
vt 0.391582 0.775073
vt 0.415461 0.784863
vt 0.387594 0.793575
vt 0.413278 0.803365
vt 0.382798 0.810438
vt 0.410795 0.820227
vt 0.376881 0.825500
vt 0.407851 0.835289
vt 0.369373 0.838615
vt 0.404174 0.848405
vt 0.359552 0.849658
vt 0.399256 0.859448
vt 0.346322 0.858523
vt 0.392038 0.868312
vt 0.328144 0.865123
vt 0.379922 0.874912
vt 0.303461 0.869395
vt 0.355013 0.879184
vt 0.272519 0.871298
vt 0.292008 0.881088
vt 0.239676 0.870814
vt 0.200620 0.880604
vt 0.211002 0.867947
vt 0.157642 0.877737
vt 0.189089 0.862726
vt 0.139585 0.872516
vt 0.173123 0.855200
vt 0.129956 0.864989
vt 0.161436 0.845441
vt 0.123859 0.855231
vt 0.152660 0.833544
vt 0.119529 0.843334
vt 0.145867 0.819624
vt 0.116193 0.829414
vt 0.140450 0.803814
vt 0.113461 0.813604
vt 0.136013 0.786267
vt 0.111114 0.796056
vt 0.132288 0.767151
vt 0.109021 0.776941
vt 0.129094 0.746651
vt 0.107092 0.756441
vt 0.126300 0.724964
vt 0.105267 0.734754
vt 0.123811 0.702300
vt 0.103499 0.712089
vt 0.121555 0.678875
vt 0.101751 0.688665
vt 0.119478 0.654917
vt 0.099990 0.664706
vt 0.117535 0.630655
vt 0.098185 0.640444
vt 0.115688 0.606323
vt 0.096303 0.616113
vt 0.113905 0.582156
vt 0.094310 0.591945
vt 0.112153 0.558386
vt 0.092167 0.568176
vt 0.110401 0.535243
vt 0.089824 0.545032
vt 0.108615 0.512948
vt 0.087221 0.522738
vt 0.106754 0.491718
vt 0.084278 0.501507
vt 0.104767 0.471755
vt 0.080887 0.481545
vt 0.102583 0.453254
vt 0.076900 0.463043
vt 0.100100 0.436391
vt 0.072104 0.446180
vt 0.097157 0.421329
vt 0.687576 0.431118
vt 0.714868 0.408213
vt 0.718545 0.421329
vt 0.680068 0.418003
vt 0.693493 0.446180
vt 0.698289 0.463043
vt 0.705667 0.501507
vt 0.723140 0.688665
vt 0.093479 0.408213
vt 0.088561 0.397170
vt 0.081344 0.388305
vn 0.0491 -0.9988 0.0000
vn 0.1467 -0.9892 0.0000
vn 0.2430 -0.9700 0.0000
vn 0.3369 -0.9415 0.0000
vn 0.4276 -0.9040 0.0000
vn 0.5141 -0.8577 0.0000
vn 0.5957 -0.8032 0.0000
vn 0.6716 -0.7410 0.0000
vn 0.7410 -0.6716 0.0000
vn 0.8032 -0.5957 0.0000
vn 0.8577 -0.5141 0.0000
vn 0.9040 -0.4276 0.0000
vn 0.9415 -0.3369 0.0000
vn 0.9700 -0.2430 0.0000
vn 0.9892 -0.1467 0.0000
vn 0.9988 -0.0491 0.0000
vn 0.9988 0.0491 0.0000
vn 0.9892 0.1467 0.0000
vn 0.9700 0.2430 0.0000
vn 0.9415 0.3369 0.0000
vn 0.9040 0.4276 0.0000
vn 0.8577 0.5141 0.0000
vn 0.8032 0.5957 0.0000
vn 0.7409 0.6716 0.0000
vn 0.6716 0.7409 0.0000
vn 0.5957 0.8032 0.0000
vn 0.5141 0.8577 0.0000
vn 0.4276 0.9040 0.0000
vn 0.3369 0.9415 0.0000
vn 0.2430 0.9700 0.0000
vn 0.1467 0.9892 0.0000
vn 0.0491 0.9988 0.0000
vn -0.0491 0.9988 0.0000
vn -0.1467 0.9892 0.0000
vn -0.2430 0.9700 0.0000
vn -0.3369 0.9415 0.0000
vn -0.4276 0.9040 0.0000
vn -0.5141 0.8577 0.0000
vn -0.5957 0.8032 0.0000
vn -0.6716 0.7410 0.0000
vn -0.7410 0.6716 0.0000
vn -0.8032 0.5957 0.0000
vn -0.8577 0.5141 0.0000
vn -0.9040 0.4276 0.0000
vn -0.9415 0.3369 0.0000
vn -0.9700 0.2430 0.0000
vn -0.9892 0.1467 0.0000
vn -0.9988 0.0491 0.0000
vn -0.9988 -0.0491 0.0000
vn -0.9892 -0.1467 0.0000
vn -0.9700 -0.2430 0.0000
vn -0.9415 -0.3369 0.0000
vn -0.9040 -0.4276 0.0000
vn -0.8577 -0.5141 0.0000
vn -0.8032 -0.5957 0.0000
vn -0.7409 -0.6716 0.0000
vn -0.6716 -0.7409 0.0000
vn -0.5957 -0.8032 0.0000
vn -0.5141 -0.8577 0.0000
vn -0.4276 -0.9040 0.0000
vn -0.3369 -0.9415 0.0000
vn -0.2430 -0.9700 0.0000
vn 0.0000 0.0000 -1.0000
vn -0.1467 -0.9892 0.0000
vn -0.0491 -0.9988 0.0000
vn -0.0000 0.0000 1.0000
usemtl None
s 1
f 1/1/1 2/2/1 3/3/1
f 4/4/2 5/5/2 2/2/2
f 6/6/3 7/7/3 5/5/3
f 8/8/4 9/9/4 7/7/4
f 10/10/5 11/11/5 9/9/5
f 12/12/6 13/13/6 11/11/6
f 14/14/7 15/15/7 13/13/7
f 16/16/8 17/17/8 15/15/8
f 18/18/9 19/19/9 17/17/9
f 20/20/10 21/21/10 19/19/10
f 22/22/11 23/23/11 21/21/11
f 24/24/12 25/25/12 23/23/12
f 26/26/13 27/27/13 25/25/13
f 28/28/14 29/29/14 27/27/14
f 30/30/15 31/31/15 29/29/15
f 32/32/16 33/33/16 31/31/16
f 34/34/17 35/35/17 33/33/17
f 36/36/18 37/37/18 35/35/18
f 38/38/19 39/39/19 37/37/19
f 40/40/20 41/41/20 39/39/20
f 42/42/21 43/43/21 41/41/21
f 44/44/22 45/45/22 43/43/22
f 46/46/23 47/47/23 45/45/23
f 48/48/24 49/49/24 47/47/24
f 50/50/25 51/51/25 49/49/25
f 52/52/26 53/53/26 51/51/26
f 54/54/27 55/55/27 53/53/27
f 56/56/28 57/57/28 55/55/28
f 58/58/29 59/59/29 57/57/29
f 60/60/30 61/61/30 59/59/30
f 62/62/31 63/63/31 61/61/31
f 64/64/32 65/65/32 63/63/32
f 66/66/33 67/67/33 65/65/33
f 68/68/34 69/69/34 67/67/34
f 70/70/35 71/71/35 69/69/35
f 72/72/36 73/73/36 71/71/36
f 74/74/37 75/75/37 73/73/37
f 76/76/38 77/77/38 75/75/38
f 78/78/39 79/79/39 77/77/39
f 80/80/40 81/81/40 79/79/40
f 82/82/41 83/83/41 81/81/41
f 84/84/42 85/85/42 83/83/42
f 86/86/43 87/87/43 85/85/43
f 88/88/44 89/89/44 87/87/44
f 90/90/45 91/91/45 89/89/45
f 92/92/46 93/93/46 91/91/46
f 94/94/47 95/95/47 93/93/47
f 96/96/48 97/97/48 95/95/48
f 98/98/49 99/99/49 97/97/49
f 100/100/50 101/101/50 99/99/50
f 102/102/51 103/103/51 101/101/51
f 104/104/52 105/105/52 103/103/52
f 106/106/53 107/107/53 105/105/53
f 108/108/54 109/109/54 107/107/54
f 110/110/55 111/111/55 109/109/55
f 112/112/56 113/113/56 111/111/56
f 114/114/57 115/115/57 113/113/57
f 116/116/58 117/117/58 115/115/58
f 118/118/59 119/119/59 117/117/59
f 120/120/60 121/121/60 119/119/60
f 122/122/61 123/123/61 121/121/61
f 124/124/62 125/125/62 123/123/62
f 70/70/63 38/38/63 6/6/63
f 126/126/64 127/127/64 125/128/64
f 128/129/65 3/3/65 127/127/65
f 127/127/66 31/31/66 63/63/66
f 1/1/1 4/4/1 2/2/1
f 4/4/2 6/6/2 5/5/2
f 6/6/3 8/8/3 7/7/3
f 8/8/4 10/10/4 9/9/4
f 10/10/5 12/12/5 11/11/5
f 12/12/6 14/14/6 13/13/6
f 14/14/7 16/16/7 15/15/7
f 16/16/8 18/18/8 17/17/8
f 18/18/9 20/20/9 19/19/9
f 20/20/10 22/22/10 21/21/10
f 22/22/11 24/24/11 23/23/11
f 24/24/12 26/26/12 25/25/12
f 26/26/13 28/28/13 27/27/13
f 28/28/14 30/30/14 29/29/14
f 30/30/15 32/32/15 31/31/15
f 32/32/16 34/34/16 33/33/16
f 34/34/17 36/36/17 35/35/17
f 36/36/18 38/38/18 37/37/18
f 38/38/19 40/40/19 39/39/19
f 40/40/20 42/42/20 41/41/20
f 42/42/21 44/44/21 43/43/21
f 44/44/22 46/46/22 45/45/22
f 46/46/23 48/48/23 47/47/23
f 48/48/24 50/50/24 49/49/24
f 50/50/25 52/52/25 51/51/25
f 52/52/26 54/54/26 53/53/26
f 54/54/27 56/56/27 55/55/27
f 56/56/28 58/58/28 57/57/28
f 58/58/29 60/60/29 59/59/29
f 60/60/30 62/62/30 61/61/30
f 62/62/31 64/64/31 63/63/31
f 64/64/32 66/66/32 65/65/32
f 66/66/33 68/68/33 67/67/33
f 68/68/34 70/70/34 69/69/34
f 70/70/35 72/72/35 71/71/35
f 72/72/36 74/74/36 73/73/36
f 74/74/37 76/76/37 75/75/37
f 76/76/38 78/78/38 77/77/38
f 78/78/39 80/80/39 79/79/39
f 80/80/40 82/82/40 81/81/40
f 82/82/41 84/84/41 83/83/41
f 84/84/42 86/86/42 85/85/42
f 86/86/43 88/88/43 87/87/43
f 88/88/44 90/90/44 89/89/44
f 90/90/45 92/92/45 91/91/45
f 92/92/46 94/94/46 93/93/46
f 94/94/47 96/96/47 95/95/47
f 96/96/48 98/98/48 97/97/48
f 98/98/49 100/100/49 99/99/49
f 100/100/50 102/102/50 101/101/50
f 102/102/51 104/104/51 103/103/51
f 104/104/52 106/106/52 105/105/52
f 106/106/53 108/108/53 107/107/53
f 108/108/54 110/110/54 109/109/54
f 110/110/55 112/112/55 111/111/55
f 112/112/56 114/114/56 113/113/56
f 114/114/57 116/116/57 115/115/57
f 116/116/58 118/118/58 117/117/58
f 118/118/59 120/120/59 119/119/59
f 120/120/60 122/122/60 121/121/60
f 122/122/61 124/124/61 123/123/61
f 124/130/62 126/126/62 125/128/62
f 6/6/63 4/4/63 1/1/63
f 1/1/63 128/129/63 6/6/63
f 128/129/63 126/126/63 6/6/63
f 126/126/63 124/130/63 122/131/63
f 122/122/63 120/120/63 118/118/63
f 118/118/63 116/116/63 110/110/63
f 116/116/63 114/114/63 110/110/63
f 114/114/63 112/112/63 110/110/63
f 110/110/63 108/108/63 102/102/63
f 108/108/63 106/106/63 102/102/63
f 106/106/63 104/104/63 102/102/63
f 102/102/63 100/100/63 94/94/63
f 100/100/63 98/98/63 94/94/63
f 98/98/63 96/96/63 94/94/63
f 94/94/63 92/92/63 86/86/63
f 92/92/63 90/90/63 86/86/63
f 90/90/63 88/88/63 86/86/63
f 86/86/63 84/84/63 78/78/63
f 84/84/63 82/82/63 78/78/63
f 82/82/63 80/80/63 78/78/63
f 78/78/63 76/76/63 74/74/63
f 74/74/63 72/72/63 78/78/63
f 72/72/63 70/70/63 78/78/63
f 70/70/63 68/68/63 66/66/63
f 66/66/63 64/64/63 70/70/63
f 64/64/63 62/62/63 70/70/63
f 62/62/63 60/60/63 58/58/63
f 58/58/63 56/56/63 62/62/63
f 56/56/63 54/54/63 62/62/63
f 54/54/63 52/52/63 46/46/63
f 52/52/63 50/50/63 46/46/63
f 50/50/63 48/48/63 46/46/63
f 46/46/63 44/44/63 42/42/63
f 42/42/63 40/40/63 38/38/63
f 38/38/63 36/36/63 34/34/63
f 34/34/63 32/32/63 38/38/63
f 32/32/63 30/30/63 38/38/63
f 30/30/63 28/28/63 26/26/63
f 26/26/63 24/24/63 22/22/63
f 22/22/63 20/20/63 14/14/63
f 20/20/63 18/18/63 14/14/63
f 18/18/63 16/16/63 14/14/63
f 14/14/63 12/12/63 6/6/63
f 12/12/63 10/10/63 6/6/63
f 10/10/63 8/8/63 6/6/63
f 126/126/63 122/131/63 6/6/63
f 122/131/63 118/132/63 6/6/63
f 46/46/63 42/42/63 38/38/63
f 30/30/63 26/26/63 38/38/63
f 26/26/63 22/22/63 38/38/63
f 118/118/63 110/110/63 102/102/63
f 102/102/63 94/94/63 86/86/63
f 86/86/63 78/78/63 102/102/63
f 78/78/63 70/70/63 102/102/63
f 70/70/63 62/62/63 54/54/63
f 54/54/63 46/46/63 70/70/63
f 46/46/63 38/38/63 70/70/63
f 22/22/63 14/14/63 38/38/63
f 14/14/63 6/6/63 38/38/63
f 6/6/63 118/132/63 102/133/63
f 6/6/63 102/133/63 70/70/63
f 126/126/64 128/129/64 127/127/64
f 128/129/65 1/1/65 3/3/65
f 127/134/66 3/135/66 2/136/66
f 2/2/66 5/5/66 127/127/66
f 5/5/66 7/7/66 127/127/66
f 7/7/66 9/9/66 11/11/66
f 11/11/66 13/13/66 15/15/66
f 15/15/66 17/17/66 19/19/66
f 19/19/66 21/21/66 23/23/66
f 23/23/66 25/25/66 31/31/66
f 25/25/66 27/27/66 31/31/66
f 27/27/66 29/29/66 31/31/66
f 31/31/66 33/33/66 39/39/66
f 33/33/66 35/35/66 39/39/66
f 35/35/66 37/37/66 39/39/66
f 39/39/66 41/41/66 47/47/66
f 41/41/66 43/43/66 47/47/66
f 43/43/66 45/45/66 47/47/66
f 47/47/66 49/49/66 55/55/66
f 49/49/66 51/51/66 55/55/66
f 51/51/66 53/53/66 55/55/66
f 55/55/66 57/57/66 59/59/66
f 59/59/66 61/61/66 63/63/66
f 63/63/66 65/65/66 71/71/66
f 65/65/66 67/67/66 71/71/66
f 67/67/66 69/69/66 71/71/66
f 71/71/66 73/73/66 79/79/66
f 73/73/66 75/75/66 79/79/66
f 75/75/66 77/77/66 79/79/66
f 79/79/66 81/81/66 83/83/66
f 83/83/66 85/85/66 87/87/66
f 87/87/66 89/89/66 91/91/66
f 91/91/66 93/93/66 95/95/66
f 95/95/66 97/97/66 99/99/66
f 99/99/66 101/101/66 103/103/66
f 103/103/66 105/105/66 107/107/66
f 107/107/66 109/109/66 111/111/66
f 111/111/66 113/113/66 115/115/66
f 115/115/66 117/117/66 119/119/66
f 119/119/66 121/121/66 127/134/66
f 121/121/66 123/123/66 127/134/66
f 123/123/66 125/125/66 127/134/66
f 7/7/66 11/11/66 127/127/66
f 11/11/66 15/15/66 127/127/66
f 15/15/66 19/19/66 23/23/66
f 55/55/66 59/59/66 63/63/66
f 79/79/66 83/83/66 87/87/66
f 87/87/66 91/91/66 79/79/66
f 91/91/66 95/95/66 79/79/66
f 95/95/66 99/99/66 111/111/66
f 99/99/66 103/103/66 111/111/66
f 103/103/66 107/107/66 111/111/66
f 111/111/66 115/115/66 127/134/66
f 115/115/66 119/119/66 127/134/66
f 15/15/66 23/23/66 31/31/66
f 31/31/66 39/39/66 47/47/66
f 47/47/66 55/55/66 31/31/66
f 55/55/66 63/63/66 31/31/66
f 63/63/66 71/71/66 79/79/66
f 127/127/66 15/15/66 31/31/66
f 63/63/66 79/79/66 95/95/66
f 95/95/66 111/111/66 63/63/66
f 111/111/66 127/134/66 63/63/66
