# Blender v2.79 (sub 0) OBJ File: ''
# www.blender.org
mtllib peg.mtl
o Cylinder
v -0.077339 0.333725 -0.018530
v -0.038321 0.329882 -3.018529
v -0.077339 0.333725 -3.018529
v -0.038321 0.329882 -0.018530
v -0.000802 0.318501 -3.018529
v -0.000802 0.318501 -0.018530
v 0.033775 0.300019 -3.018529
v 0.033775 0.300019 -0.018530
v 0.064083 0.275147 -3.018529
v 0.064083 0.275147 -0.018530
v 0.088955 0.244839 -3.018529
v 0.088955 0.244839 -0.018530
v 0.107437 0.210262 -3.018529
v 0.107437 0.210262 -0.018530
v 0.118818 0.172743 -3.018529
v 0.118818 0.172743 -0.018530
v 0.122661 0.133725 -3.018529
v 0.122661 0.133725 -0.018530
v 0.118818 0.094707 -3.018529
v 0.118818 0.094707 -0.018530
v 0.107437 0.057189 -3.018529
v 0.107437 0.057189 -0.018530
v 0.088955 0.022611 -3.018529
v 0.088955 0.022611 -0.018530
v 0.064083 -0.007696 -3.018529
v 0.064083 -0.007696 -0.018530
v 0.033775 -0.032569 -3.018529
v 0.033775 -0.032569 -0.018530
v -0.000802 -0.051051 -3.018529
v -0.000802 -0.051051 -0.018530
v -0.038321 -0.062432 -3.018529
v -0.038321 -0.062432 -0.018530
v -0.077339 -0.066275 -3.018529
v -0.077339 -0.066275 -0.018530
v -0.116357 -0.062432 -3.018529
v -0.116357 -0.062432 -0.018530
v -0.153875 -0.051051 -3.018529
v -0.153875 -0.051051 -0.018530
v -0.188453 -0.032569 -3.018529
v -0.188453 -0.032569 -0.018530
v -0.218760 -0.007696 -3.018529
v -0.218760 -0.007696 -0.018530
v -0.243633 0.022611 -3.018529
v -0.243633 0.022611 -0.018530
v -0.262115 0.057189 -3.018529
v -0.262115 0.057189 -0.018530
v -0.273496 0.094707 -3.018529
v -0.273496 0.094707 -0.018530
v -0.277339 0.133725 -3.018529
v -0.277339 0.133725 -0.018530
v -0.273496 0.172744 -3.018529
v -0.273496 0.172743 -0.018530
v -0.262114 0.210262 -3.018529
v -0.262114 0.210262 -0.018530
v -0.243632 0.244840 -3.018529
v -0.243632 0.244839 -0.018530
v -0.218760 0.275147 -3.018529
v -0.218760 0.275147 -0.018530
v -0.188452 0.300019 -3.018529
v -0.188452 0.300019 -0.018530
v -0.153875 0.318501 -3.018529
v -0.153875 0.318501 -0.018530
v -0.116356 0.329882 -3.018529
v -0.116356 0.329882 -0.018530
vt 0.448691 0.778888
vt 0.796409 0.860959
vt 0.801525 0.869659
vt 0.467791 0.748880
vt 0.790231 0.848949
vt 0.475877 0.724319
vt 0.783230 0.834090
vt 0.478473 0.701016
vt 0.775672 0.816955
vt 0.478004 0.677643
vt 0.767847 0.798203
vt 0.475783 0.653961
vt 0.760054 0.778558
vt 0.472688 0.630181
vt 0.752588 0.758776
vt 0.469426 0.606700
vt 0.745736 0.739618
vt 0.466674 0.583935
vt 0.739759 0.721823
vt 0.465204 0.562174
vt 0.734887 0.706076
vt 0.466147 0.541310
vt 0.731307 0.692979
vt 0.471768 0.520117
vt 0.729156 0.683037
vt 0.488832 0.493269
vt 0.728520 0.676631
vt 0.549059 0.433308
vt 0.729423 0.674005
vt 0.685292 0.311606
vt 0.731833 0.675260
vt 0.739656 0.267146
vt 0.735659 0.680344
vt 0.760606 0.257163
vt 0.740754 0.689062
vt 0.774039 0.258545
vt 0.746926 0.701078
vt 0.785422 0.265975
vt 0.753936 0.715929
vt 0.796361 0.277369
vt 0.761516 0.733045
vt 0.807389 0.291451
vt 0.769373 0.751768
vt 0.818655 0.307175
vt 0.777205 0.771380
vt 0.830155 0.323559
vt 0.784707 0.791129
vt 0.841846 0.339623
vt 0.791590 0.810259
vt 0.853728 0.354355
vt 0.797588 0.828037
vt 0.865948 0.366655
vt 0.802466 0.843779
vt 0.878982 0.375222
vt 0.806038 0.856883
vt 0.894049 0.378212
vt 0.808166 0.866844
vt 0.914249 0.372272
vt 0.808770 0.873279
vt 0.947875 0.349650
vt 0.807829 0.875938
vt 1.011967 0.295087
vt 0.805382 0.874716
vt 0.405010 0.825774
vt 0.326832 0.897937
vt 0.262741 0.952500
vt 0.229115 0.975122
vt 0.208914 0.981062
vt 0.193847 0.978072
vt 0.180814 0.969506
vt 0.168593 0.957205
vt 0.156711 0.942474
vt 0.145020 0.926409
vt 0.133520 0.910025
vt 0.122254 0.894301
vt 0.111226 0.880220
vt 0.100287 0.868825
vt 0.088905 0.861395
vt 0.075471 0.860013
vn 0.0980 0.9952 0.0000
vn 0.2903 0.9569 0.0000
vn 0.4714 0.8819 0.0000
vn 0.6344 0.7730 0.0000
vn 0.7730 0.6344 0.0000
vn 0.8819 0.4714 0.0000
vn 0.9569 0.2903 0.0000
vn 0.9952 0.0980 0.0000
vn 0.9952 -0.0980 -0.0000
vn 0.9569 -0.2903 -0.0000
vn 0.8819 -0.4714 -0.0000
vn 0.7730 -0.6344 -0.0000
vn 0.6344 -0.7730 -0.0000
vn 0.4714 -0.8819 -0.0000
vn 0.2903 -0.9569 -0.0000
vn 0.0980 -0.9952 -0.0000
vn -0.0980 -0.9952 -0.0000
vn -0.2903 -0.9569 -0.0000
vn -0.4714 -0.8819 -0.0000
vn -0.6344 -0.7730 -0.0000
vn -0.7730 -0.6344 -0.0000
vn -0.8819 -0.4714 -0.0000
vn -0.9569 -0.2903 -0.0000
vn -0.9952 -0.0980 -0.0000
vn -0.9952 0.0980 0.0000
vn -0.9569 0.2903 0.0000
vn -0.8819 0.4714 0.0000
vn -0.7730 0.6344 0.0000
vn -0.6344 0.7730 0.0000
vn -0.4714 0.8819 0.0000
vn 0.0000 -0.0000 1.0000
vn -0.2903 0.9569 0.0000
vn -0.0980 0.9952 0.0000
vn 0.0000 0.0000 -1.0000
vn 0.0001 0.0000 -1.0000
usemtl None
s 1
f 1/1/1 2/2/1 3/3/1
f 4/4/2 5/5/2 2/2/2
f 6/6/3 7/7/3 5/5/3
f 8/8/4 9/9/4 7/7/4
f 10/10/5 11/11/5 9/9/5
f 12/12/6 13/13/6 11/11/6
f 14/14/7 15/15/7 13/13/7
f 16/16/8 17/17/8 15/15/8
f 18/18/9 19/19/9 17/17/9
f 20/20/10 21/21/10 19/19/10
f 22/22/11 23/23/11 21/21/11
f 24/24/12 25/25/12 23/23/12
f 26/26/13 27/27/13 25/25/13
f 28/28/14 29/29/14 27/27/14
f 30/30/15 31/31/15 29/29/15
f 32/32/16 33/33/16 31/31/16
f 34/34/17 35/35/17 33/33/17
f 36/36/18 37/37/18 35/35/18
f 38/38/19 39/39/19 37/37/19
f 40/40/20 41/41/20 39/39/20
f 42/42/21 43/43/21 41/41/21
f 44/44/22 45/45/22 43/43/22
f 46/46/23 47/47/23 45/45/23
f 48/48/24 49/49/24 47/47/24
f 50/50/25 51/51/25 49/49/25
f 52/52/26 53/53/26 51/51/26
f 54/54/27 55/55/27 53/53/27
f 56/56/28 57/57/28 55/55/28
f 58/58/29 59/59/29 57/57/29
f 60/60/30 61/61/30 59/59/30
f 38/38/31 22/22/31 6/6/31
f 62/62/32 63/63/32 61/61/32
f 64/64/33 3/3/33 63/63/33
f 31/31/34 47/47/34 63/63/34
f 1/1/1 4/4/1 2/2/1
f 4/4/2 6/6/2 5/5/2
f 6/6/3 8/8/3 7/7/3
f 8/8/4 10/10/4 9/9/4
f 10/10/5 12/12/5 11/11/5
f 12/12/6 14/14/6 13/13/6
f 14/14/7 16/16/7 15/15/7
f 16/16/8 18/18/8 17/17/8
f 18/18/9 20/20/9 19/19/9
f 20/20/10 22/22/10 21/21/10
f 22/22/11 24/24/11 23/23/11
f 24/24/12 26/26/12 25/25/12
f 26/26/13 28/28/13 27/27/13
f 28/28/14 30/30/14 29/29/14
f 30/30/15 32/32/15 31/31/15
f 32/32/16 34/34/16 33/33/16
f 34/34/17 36/36/17 35/35/17
f 36/36/18 38/38/18 37/37/18
f 38/38/19 40/40/19 39/39/19
f 40/40/20 42/42/20 41/41/20
f 42/42/21 44/44/21 43/43/21
f 44/44/22 46/46/22 45/45/22
f 46/46/23 48/48/23 47/47/23
f 48/48/24 50/50/24 49/49/24
f 50/50/25 52/52/25 51/51/25
f 52/52/26 54/54/26 53/53/26
f 54/54/27 56/56/27 55/55/27
f 56/56/28 58/58/28 57/57/28
f 58/58/29 60/60/29 59/59/29
f 60/60/30 62/62/30 61/61/30
f 6/6/31 4/4/31 1/1/31
f 1/1/31 64/64/31 6/6/31
f 64/64/31 62/65/31 6/6/31
f 62/65/31 60/66/31 58/67/31
f 58/67/31 56/68/31 62/65/31
f 56/68/31 54/69/31 62/65/31
f 54/69/31 52/70/31 50/71/31
f 50/71/31 48/72/31 54/69/31
f 48/72/31 46/73/31 54/69/31
f 46/73/31 44/74/31 42/75/31
f 42/75/31 40/76/31 46/73/31
f 40/76/31 38/77/31 46/73/31
f 38/77/31 36/78/31 34/79/31
f 34/34/31 32/32/31 38/38/31
f 32/32/31 30/30/31 38/38/31
f 30/30/31 28/28/31 22/22/31
f 28/28/31 26/26/31 22/22/31
f 26/26/31 24/24/31 22/22/31
f 22/22/31 20/20/31 18/18/31
f 18/18/31 16/16/31 22/22/31
f 16/16/31 14/14/31 22/22/31
f 14/14/31 12/12/31 10/10/31
f 10/10/31 8/8/31 14/14/31
f 8/8/31 6/6/31 14/14/31
f 6/6/31 62/65/31 54/69/31
f 54/69/31 46/73/31 38/77/31
f 38/38/31 30/30/31 22/22/31
f 22/22/31 14/14/31 6/6/31
f 6/6/31 54/69/31 38/77/31
f 62/62/32 64/64/32 63/63/32
f 64/64/33 1/1/33 3/3/33
f 63/63/34 3/3/34 2/2/34
f 2/2/34 5/5/34 7/7/34
f 7/7/34 9/9/34 11/11/34
f 11/11/34 13/13/34 7/7/34
f 13/13/34 15/15/34 7/7/34
f 15/15/34 17/17/34 19/19/34
f 19/19/34 21/21/34 15/15/34
f 21/21/34 23/23/34 15/15/34
f 23/23/34 25/25/34 27/27/34
f 27/27/34 29/29/34 31/31/34
f 31/31/34 33/33/34 35/35/34
f 35/35/34 37/37/34 39/39/34
f 39/39/34 41/41/34 43/43/34
f 43/43/34 45/45/34 47/47/34
f 47/47/34 49/49/34 51/51/35
f 51/51/35 53/53/34 47/47/34
f 53/53/34 55/55/34 47/47/34
f 55/55/34 57/57/34 59/59/34
f 59/59/34 61/61/34 55/55/34
f 61/61/34 63/63/34 55/55/34
f 63/63/34 2/2/34 7/7/34
f 23/23/34 27/27/34 31/31/34
f 31/31/34 35/35/34 39/39/34
f 39/39/34 43/43/34 47/47/34
f 63/63/34 7/7/34 15/15/34
f 15/15/34 23/23/34 63/63/34
f 23/23/34 31/31/34 63/63/34
f 31/31/34 39/39/34 47/47/34
f 47/47/34 55/55/34 63/63/34
