# Blender v2.79 (sub 0) OBJ File: 'pinabll.blend'
# www.blender.org
mtllib blenderTexturedWalls.mtl
o Cube.002
v -19.999989 -0.000002 38.999977
v -19.999981 3.500002 -39.000000
v -19.999981 0.000002 -39.000000
v -19.999981 3.500002 -40.000000
v -19.999981 0.000002 -40.000000
v -18.999990 -0.000002 38.999981
v 18.999987 3.499998 38.999992
v 18.999987 -0.000002 38.999992
v 19.000000 0.000002 -38.999962
v -18.999983 3.500002 -38.999996
v -18.999983 0.000002 -38.999996
v 19.999985 3.499998 39.999996
v -18.999990 3.499998 38.999981
v 20.000000 3.500002 -38.999958
v 19.000000 3.500002 -38.999962
v -19.999989 3.499998 38.999977
v 20.000000 0.000002 -39.999954
v 20.000000 0.000002 -38.999958
v 20.000000 3.500002 -39.999954
v 19.999985 -0.000002 39.999996
v -19.999989 3.499998 39.999977
v -19.999989 -0.000002 39.999977
v 19.999987 3.499998 38.999996
v 19.999987 -0.000002 38.999996
vt 0.747693 0.064144
vt 0.007864 0.123161
vt 0.007864 0.064145
vt 0.201260 0.779484
vt 0.245523 0.792131
vt 0.201260 0.792131
vt 0.248015 0.462448
vt 0.728584 0.418185
vt 0.728584 0.462448
vt 0.723662 0.501048
vt 0.243093 0.545311
vt 0.243093 0.501048
vt 0.702743 0.872135
vt 0.690096 0.884782
vt 0.209522 0.884781
vt 0.833521 0.899789
vt 0.818765 0.054425
vt 0.833521 0.054366
vt 0.885646 0.899789
vt 0.870890 0.054425
vt 0.885646 0.054366
vt 0.722762 0.591293
vt 0.229559 0.603940
vt 0.242206 0.591293
vt 0.007864 0.242418
vt 0.747693 0.183401
vt 0.747693 0.242417
vt 0.198799 0.800771
vt 0.243062 0.813418
vt 0.198799 0.813418
vt 0.224637 0.375894
vt 0.730500 0.331631
vt 0.730500 0.375894
vt 0.741574 0.254920
vt 0.235711 0.299183
vt 0.235711 0.254920
vt 0.007864 0.182790
vt 0.747692 0.123772
vt 0.747692 0.182789
vt 0.202490 0.751615
vt 0.246753 0.764262
vt 0.202490 0.764262
vt 0.196338 0.825809
vt 0.240601 0.838455
vt 0.196338 0.838455
vt 0.747692 0.004517
vt 0.007864 0.063534
vt 0.007864 0.004518
vt 0.224840 0.205816
vt 0.223834 0.205808
vt 0.224840 0.205798
vt 0.196535 0.922186
vt 0.196535 0.909539
vt 0.209181 0.909539
vt 0.946384 0.897328
vt 0.931628 0.051965
vt 0.946384 0.051905
vt 0.790008 0.053204
vt 0.775252 0.898568
vt 0.775252 0.053136
vt 0.747692 0.123162
vt 0.245523 0.779484
vt 0.248015 0.418185
vt 0.723662 0.545311
vt 0.196875 0.884781
vt 0.196875 0.872135
vt 0.702743 0.884782
vt 0.818765 0.899849
vt 0.870890 0.899848
vt 0.735409 0.591293
vt 0.735409 0.603940
vt 0.229559 0.591293
vt 0.007864 0.183401
vt 0.243062 0.800771
vt 0.224637 0.331631
vt 0.741574 0.299183
vt 0.007864 0.123773
vt 0.246753 0.751615
vt 0.240601 0.825809
vt 0.747692 0.063534
vt 0.706767 0.645344
vt 0.213564 0.645344
vt 0.213564 0.632697
vt 0.719414 0.632697
vt 0.719414 0.645344
vt 0.223834 0.205321
vt 0.224940 0.205330
vt 0.223834 0.205341
vt 0.702408 0.909539
vt 0.702408 0.922185
vt 0.931628 0.897388
vt 0.790008 0.898636
vn -0.7071 -0.7071 -0.0000
vn -0.7071 0.7071 -0.0000
vn -0.5773 0.5774 -0.5774
vn -0.5773 -0.5774 -0.5774
vn 0.5774 -0.5773 -0.5774
vn -0.3015 0.9045 -0.3015
vn -0.5774 -0.5773 0.5774
vn 0.3015 0.9045 0.3015
vn 0.5773 -0.5774 0.5773
vn 0.5773 0.5774 0.5774
vn 0.3015 0.9045 -0.3015
vn 0.7071 0.7071 0.0000
vn -0.3015 0.9045 0.3015
vn 0.5774 -0.5774 -0.5773
vn 0.7071 -0.7071 0.0000
vn 0.5774 0.5774 -0.5773
vn 0.5773 -0.5774 0.5774
vn -0.5774 0.5774 0.5773
vn -0.5774 -0.5774 0.5774
vn 0.0000 -1.0000 0.0000
usemtl Material.001
s 1
f 1/1/1 2/2/2 3/3/1
f 3/4/1 4/5/3 5/6/4
f 6/7/5 7/8/6 8/9/4
f 9/10/7 10/11/8 11/12/9
f 12/13/10 7/14/6 13/15/11
f 7/16/6 14/17/12 15/18/13
f 16/19/2 10/20/8 2/21/2
f 15/22/13 4/23/3 10/24/8
f 11/25/9 13/26/11 6/27/5
f 17/28/14 14/29/12 18/30/15
f 5/31/4 19/32/16 17/33/14
f 20/34/17 21/35/18 22/36/19
f 18/37/15 23/38/12 24/39/15
f 22/40/19 16/41/2 1/42/1
f 24/43/15 12/44/10 20/45/17
f 8/46/4 15/47/13 9/48/7
f 18/49/20 11/50/20 9/51/20
f 22/52/19 1/53/1 6/54/20
f 24/55/15 9/56/7 18/57/15
f 11/58/9 1/59/1 3/60/1
f 1/1/1 16/61/2 2/2/2
f 3/4/1 2/62/2 4/5/3
f 6/7/5 13/63/11 7/8/6
f 9/10/7 15/64/13 10/11/8
f 16/65/2 21/66/18 13/15/11
f 21/66/18 12/13/10 13/15/11
f 12/13/10 23/67/12 7/14/6
f 7/16/6 23/68/12 14/17/12
f 16/19/2 13/69/11 10/20/8
f 15/22/13 14/70/12 19/71/16
f 19/71/16 4/23/3 15/22/13
f 4/23/3 2/72/2 10/24/8
f 11/25/9 10/73/8 13/26/11
f 17/28/14 19/74/16 14/29/12
f 5/31/4 4/75/3 19/32/16
f 20/34/17 12/76/10 21/35/18
f 18/37/15 14/77/12 23/38/12
f 22/40/19 21/78/18 16/41/2
f 24/43/15 23/79/12 12/44/10
f 8/46/4 7/80/6 15/47/13
f 9/81/20 3/82/1 5/83/4
f 5/83/4 17/84/14 9/81/20
f 17/84/14 18/85/15 9/81/20
f 1/86/20 8/87/20 6/88/20
f 6/54/20 24/89/15 20/90/17
f 20/90/17 22/52/19 6/54/20
f 24/55/15 8/91/4 9/56/7
f 11/58/9 6/92/5 1/59/1
