# Blender v2.79 (sub 0) OBJ File: ''
# www.blender.org
mtllib board.mtl
o Cube.002
v -6.919497 -0.991783 -8.530019
v -6.919498 -0.991789 11.843445
v -6.919497 0.991783 11.843449
v -6.919493 0.991789 -8.530025
v 7.404848 0.991785 -8.530008
v -4.067159 0.991781 16.655849
v -5.960029 0.991781 14.491735
v -5.960031 -0.991791 14.491733
v 1.446735 0.991781 18.126644
v -0.961393 0.991781 18.126644
v -0.961395 -0.991791 18.126638
v 1.446737 -0.991791 18.126640
v 4.552503 -0.991791 16.655849
v -4.067161 -0.991791 16.655842
v 7.404843 -0.991787 -8.530016
v 7.404841 0.991779 11.843454
v 7.404841 -0.991793 11.843451
v 6.445374 0.991779 14.491741
v 6.445374 -0.991793 14.491739
v 4.552504 0.991781 16.655853
v -5.390967 -1.008480 10.620932
v -5.390962 0.982155 10.620932
v -5.390960 0.982157 -8.462448
v -6.328545 -0.991789 11.739695
v -6.495247 -0.991783 -8.105768
v -6.495243 0.991789 -8.105774
v 6.980597 0.991785 -8.105761
v -5.443308 -0.991791 14.186817
v -5.443306 0.991781 14.186819
v -3.705387 0.991781 16.177197
v -0.829791 0.991781 17.541256
v 1.315133 0.991781 17.541256
v 1.315135 -0.991791 17.541252
v 4.190731 -0.991791 16.177197
v -3.705389 -0.991791 16.177191
v 6.813888 0.991779 11.739704
v 6.980593 -0.991787 -8.105766
v 5.928651 0.991781 14.186826
v 6.813888 -0.991793 11.739702
v 4.190732 0.991781 16.177200
v 5.928651 -0.991791 14.186823
v -4.790962 0.982155 10.620932
v -4.790967 -1.008480 10.620932
v -4.790965 -1.008479 -8.462448
v -0.829793 -0.991791 17.541250
v -6.328543 0.991783 11.739697
v -5.390965 -1.008479 -8.462448
v -4.790961 0.982157 -8.462448
v -5.361255 -1.000000 -2.994961
v -4.178586 0.939996 -2.833975
v -4.178586 -1.000000 -2.833974
v -4.803442 0.939996 -0.636768
v -4.803442 -1.000000 -0.636768
v -5.361255 0.939996 -2.994961
v 6.924797 0.968814 -0.598432
v 6.924797 -1.000000 -0.598432
v 6.191432 -1.000000 -2.798633
v 6.958641 0.968814 -2.786402
v -4.758669 -0.991783 -8.105768
v -4.757164 0.991789 -8.105772
v -4.758458 -0.736066 -8.105767
v 6.191432 0.968814 -2.798633
v 4.646649 0.968814 -4.798219
v -4.181756 -1.000000 -1.833979
v 6.921627 -1.000000 0.401563
v -4.806612 0.939996 0.363227
v 6.921627 0.968814 0.401563
v -4.806612 -1.000000 0.363227
v -4.181756 0.939996 -1.833980
v -2.479211 -1.000000 -4.285588
v 6.188262 0.968814 -1.798638
v 6.188262 -1.000000 -1.798638
v 4.643479 -1.000000 -4.179619
v -2.479211 0.939996 -4.285588
v 4.643479 0.968814 -4.179619
v 6.958641 -1.000000 -2.786402
v 4.646649 -1.000000 -4.798219
v -2.476041 0.939996 -4.904189
v -2.476041 -1.000000 -4.904189
vt 0.000000 0.000000
vt 0.000000 0.000000
vt 0.000000 0.000000
vt 0.000000 0.000000
vt 0.000000 0.000000
vt 0.855277 0.521648
vt 0.855277 0.948790
vt 0.819135 0.948790
vt 0.108683 0.863243
vt 0.072541 0.863242
vt 0.072541 0.571574
vt 0.144825 0.626027
vt 0.144825 0.571574
vt 0.180967 0.571574
vt 0.144825 0.747735
vt 0.144825 0.699486
vt 0.180967 0.699486
vt 0.180967 0.747735
vt 0.180967 0.798729
vt 0.180967 0.626027
vt 0.819135 0.536106
vt 0.782993 0.536105
vt 0.782993 0.116004
vt 0.819135 0.116004
vt 0.782993 0.055754
vt 0.855277 1.000000
vt 0.819135 1.000000
vt 0.819135 0.055754
vt 0.782993 0.000000
vt 0.036271 0.973139
vt 0.000000 0.973139
vt 0.000000 0.571574
vt 0.782993 0.944340
vt 0.782993 0.536105
vt 0.819135 0.536106
vt 0.108683 0.841573
vt 0.108683 0.606407
vt 0.140166 0.606382
vt 0.217109 0.781115
vt 0.180967 0.781115
vt 0.180967 0.732352
vt 0.180967 0.664634
vt 0.180967 0.620959
vt 0.217108 0.620959
vt 0.217109 0.571574
vt 0.217109 0.732353
vt 0.819135 0.416822
vt 0.819135 0.000000
vt 0.855277 0.000000
vt 0.819135 0.472106
vt 0.855277 0.416822
vt 0.819135 0.989594
vt 0.782993 0.989594
vt 0.819135 0.521648
vt 0.855277 0.472106
vt 0.072541 0.966520
vt 0.036271 0.966520
vt 0.036271 0.571574
vt 0.260998 0.571573
vt 0.482615 0.562477
vt 0.514265 0.562477
vt 0.000000 0.571574
vt 0.039408 0.562477
vt 0.253268 0.562477
vt 0.152438 0.000000
vt 0.209026 0.031537
vt 0.202435 0.041800
vt 0.369558 0.000000
vt 0.371956 0.012552
vt 0.319561 0.041800
vt 0.413435 0.000000
vt 0.470024 0.031537
vt 0.463432 0.041800
vt 0.108560 0.000000
vt 0.110958 0.012552
vt 0.058563 0.041800
vt 0.411037 0.012552
vt 0.150040 0.012552
vt 0.278480 0.077940
vt 0.287895 0.084478
vt 0.271765 0.136949
vt 0.243516 0.077940
vt 0.260998 0.134725
vt 0.250230 0.136949
vt 0.017482 0.077940
vt 0.026897 0.084478
vt 0.010768 0.136949
vt 0.504513 0.077940
vt 0.521995 0.134725
vt 0.511228 0.136949
vt 0.312969 0.031537
vt 0.234101 0.084478
vt 0.260998 0.134725
vt 0.260998 0.571573
vt 0.521995 0.571573
vt 0.495098 0.084478
vt 0.000000 0.134725
vt 0.051971 0.031537
vt 0.000000 1.000000
vt 0.000000 0.000001
vt 0.855277 0.000000
vt 0.228041 0.982264
vt 0.217109 0.982264
vt 0.217109 0.571574
vt 0.548900 0.656940
vt 0.538685 0.656940
vt 0.538685 0.614257
vt 0.228041 0.571574
vt 0.238973 0.571574
vt 0.238973 0.982264
vt 0.573967 0.540037
vt 0.539478 0.493634
vt 0.731022 0.540036
vt 0.819135 0.521648
vt 0.108683 0.571574
vt 0.144825 0.798729
vt 0.819135 0.000000
vt 0.036271 0.571574
vt 0.819135 0.944340
vt 0.144825 0.841573
vt 0.144825 0.606377
vt 0.217108 0.664634
vt 0.180967 0.571574
vt 0.855277 0.521648
vt 0.072541 0.571574
vt 0.268728 0.562477
vt 0.007730 0.562477
vt 0.855277 1.000000
vt 0.228041 0.571574
vt 0.548900 0.614257
vt 0.228041 0.982264
vt 0.674433 0.571573
vt 0.630556 0.571573
vt 0.521995 0.436849
vt 0.765511 0.493634
vt 0.782993 0.000000
vt 0.782993 0.436849
vt 0.521995 0.000000
vt 0.421893 0.641152
vt 0.457766 0.641152
vt 0.421893 0.641152
vt 0.309669 0.618507
vt 0.274321 0.618507
vt 0.274321 0.571574
vt 0.538685 0.675800
vt 0.529511 0.619350
vt 0.538685 0.571574
vt 0.329992 0.619350
vt 0.339165 0.675800
vt 0.309669 0.610238
vt 0.493639 0.619483
vt 0.457766 0.619483
vt 0.457766 0.571574
vt 0.309669 0.571574
vt 0.274321 0.571574
vt 0.309669 0.571574
vt 0.368661 0.607956
vt 0.395277 0.571574
vt 0.387908 0.620540
vt 0.414523 0.625055
vt 0.421893 0.674021
vt 0.395277 0.637639
vt 0.274321 0.620554
vt 0.238973 0.620554
vt 0.274321 0.620554
vt 0.339165 0.637135
vt 0.368661 0.571574
vt 0.368661 0.675800
vt 0.339165 0.571574
vt 0.493639 0.571574
vt 0.309669 0.671504
vt 0.274321 0.671504
vt 0.274321 0.671504
vt 0.395277 0.674021
vt 0.421893 0.571574
vt 0.144825 0.571574
vt 0.108683 0.571574
vt 0.387908 0.620540
vt 0.395277 0.674021
vt 0.529511 0.617796
vt 0.493639 0.617796
vt 0.493639 0.617796
vt 0.329992 0.619350
vt 0.238973 0.571574
vt 0.529511 0.617796
vt 0.529511 0.660628
vt 0.493639 0.660628
vt 0.274321 0.673253
vt 0.529511 0.617796
vt 0.493639 0.617796
vt 0.493639 0.571574
vt 0.238973 0.673253
vt 0.529511 0.571574
vt 0.414523 0.625055
vt 0.421893 0.674021
vt 0.421893 0.571574
vt 0.538685 0.675800
vt 0.529511 0.619350
vt 0.457766 0.619483
vt 0.339165 0.675800
vt 0.538685 0.571574
vt 0.421893 0.571574
vt 0.457766 0.641152
vt 0.238973 0.620554
vt 0.309669 0.671504
vt 0.395277 0.571574
vt 0.339165 0.571574
vt 0.493639 0.619483
vn 0.0000 0.0000 -1.0000
vn -1.0000 0.0000 -0.0000
vn -0.7527 -0.0000 0.6584
vn -0.0000 -0.0000 1.0000
vn 0.4280 -0.0000 0.9038
vn -0.4280 -0.0000 0.9038
vn 1.0000 -0.0000 0.0000
vn 0.9402 -0.0000 0.3406
vn -0.9402 -0.0000 0.3406
vn 0.7527 -0.0000 0.6584
vn 1.0000 -0.0000 -0.0084
vn 0.7533 0.0000 -0.6577
vn -0.4286 0.0000 -0.9035
vn 0.4286 0.0000 -0.9035
vn -1.0000 0.0000 -0.0084
vn -0.9404 0.0000 -0.3402
vn 0.9404 -0.0000 -0.3402
vn -0.7533 0.0000 -0.6577
vn -0.0000 -1.0000 -0.0000
vn 0.0000 1.0000 0.0000
vn -0.9213 0.3888 -0.0047
vn -0.5228 -0.8524 -0.0027
vn -0.5228 0.8524 -0.0027
vn -0.9731 0.0000 0.2302
vn 0.9999 -0.0000 0.0155
vn -0.4804 0.8770 -0.0015
vn -0.9851 -0.1718 -0.0031
vn -0.9851 0.1718 -0.0031
vn 1.0000 0.0000 0.0032
vn 0.9170 0.3988 0.0047
vn 0.5260 -0.8505 0.0027
vn 0.9170 -0.3988 0.0047
vn 0.4871 -0.8734 0.0015
vn -0.9213 -0.3888 -0.0047
vn -1.0000 0.0000 -0.0032
vn 0.9619 0.0000 0.2735
vn -0.9487 0.0000 0.3162
vn 0.8214 0.0000 0.5704
vn -0.8389 0.0000 0.5443
vn 0.4871 0.8734 0.0015
vn 0.9793 0.2026 0.0031
vn 0.9793 -0.2026 0.0031
vn 0.5260 0.8505 0.0027
vn -0.4804 -0.8770 -0.0015
vn -0.5518 0.0000 -0.8339
vn 0.6564 0.0000 -0.7544
usemtl Material.001
s off
f 37/1/1 59/2/1 61/3/1
f 61/3/1 60/4/1 27/5/1
f 27/5/1 37/1/1 61/3/1
s 1
f 1/6/2 2/7/2 3/8/2
f 1/9/1 4/10/1 5/11/1
f 6/12/3 7/13/3 8/14/3
f 9/15/4 10/16/4 11/17/4
f 9/15/5 12/18/5 13/19/5
f 10/16/6 6/12/6 14/20/6
f 15/21/7 5/22/7 16/23/7
f 17/24/8 16/23/8 18/25/8
f 2/7/9 8/26/9 7/27/9
f 19/28/10 18/25/10 20/29/10
f 21/30/2 22/31/2 23/32/2
f 24/33/11 25/34/11 26/35/11
f 27/36/4 60/37/4 61/38/4
f 28/39/12 29/40/12 30/41/12
f 31/42/1 32/43/1 33/44/1
f 34/45/13 33/44/13 32/43/13
f 35/46/14 30/41/14 31/42/14
f 36/47/15 27/48/15 37/49/15
f 38/50/16 36/47/16 39/51/16
f 29/52/17 28/53/17 24/33/17
f 40/54/18 38/50/18 41/55/18
f 42/56/7 43/57/7 44/58/7
f 15/59/19 59/60/19 25/61/19
f 4/62/20 60/63/20 27/64/20
f 9/65/20 20/66/20 40/67/20
f 12/68/19 33/69/19 34/70/19
f 11/71/19 14/72/19 35/73/19
f 10/74/20 31/75/20 30/76/20
f 12/68/19 11/71/19 45/77/19
f 9/65/20 32/78/20 31/75/20
f 19/79/19 41/80/19 39/81/19
f 18/82/20 16/83/20 36/84/20
f 7/85/20 29/86/20 46/87/20
f 8/88/19 2/89/19 24/90/19
f 13/91/19 34/70/19 41/80/19
f 20/66/20 18/82/20 38/92/20
f 15/59/19 17/93/19 39/81/19
f 5/94/20 27/64/20 36/84/20
f 1/95/19 25/61/19 24/90/19
f 14/72/19 8/88/19 28/96/19
f 4/62/20 3/97/20 46/87/20
f 6/98/20 30/76/20 29/86/20
f 47/99/1 23/100/1 48/101/1
f 47/102/19 44/103/19 43/104/19
f 21/105/4 43/106/4 42/107/4
f 22/108/20 42/109/20 48/110/20
f 13/111/20 19/112/20 14/113/20
f 4/114/2 1/6/2 3/8/2
f 15/115/1 1/9/1 5/11/1
f 14/20/3 6/12/3 8/14/3
f 12/18/4 9/15/4 11/17/4
f 20/116/5 9/15/5 13/19/5
f 11/17/6 10/16/6 14/20/6
f 17/24/7 15/21/7 16/23/7
f 19/28/8 17/24/8 18/25/8
f 3/8/9 2/7/9 7/27/9
f 13/117/10 19/28/10 20/29/10
f 47/118/2 21/30/2 23/32/2
f 46/119/11 24/33/11 26/35/11
f 37/120/4 61/38/4 59/121/4
f 35/46/12 28/39/12 30/41/12
f 45/122/1 31/42/1 33/44/1
f 40/123/13 34/45/13 32/43/13
f 45/122/14 35/46/14 31/42/14
f 39/51/15 36/47/15 37/49/15
f 41/55/16 38/50/16 39/51/16
f 46/119/17 29/52/17 24/33/17
f 34/124/18 40/54/18 41/55/18
f 48/125/7 42/56/7 44/58/7
f 1/95/19 15/59/19 25/61/19
f 5/94/20 4/62/20 27/64/20
f 32/78/20 9/65/20 40/67/20
f 13/91/19 12/68/19 34/70/19
f 45/77/19 11/71/19 35/73/19
f 6/98/20 10/74/20 30/76/20
f 33/69/19 12/68/19 45/77/19
f 10/74/20 9/65/20 31/75/20
f 17/93/19 19/79/19 39/81/19
f 38/92/20 18/82/20 36/84/20
f 3/97/20 7/85/20 46/87/20
f 28/96/19 8/88/19 24/90/19
f 19/79/19 13/91/19 41/80/19
f 40/67/20 20/66/20 38/92/20
f 37/126/19 15/59/19 39/81/19
f 16/83/20 5/94/20 36/84/20
f 2/89/19 1/95/19 24/90/19
f 35/73/19 14/72/19 28/96/19
f 26/127/20 4/62/20 46/87/20
f 7/85/20 6/98/20 29/86/20
f 44/128/1 47/99/1 48/101/1
f 21/129/19 47/102/19 43/104/19
f 22/130/4 21/105/4 42/107/4
f 23/131/20 22/108/20 48/110/20
f 11/132/20 12/133/20 13/111/20
f 17/134/20 8/135/20 19/112/20
f 1/136/20 2/137/20 15/138/20
f 8/135/20 17/134/20 2/137/20
f 11/132/20 13/111/20 14/113/20
f 2/137/20 17/134/20 15/138/20
f 19/112/20 8/135/20 14/113/20
f 63/139/21 73/140/22 75/141/23
f 54/142/24 49/143/24 53/144/24
f 79/145/19 51/146/20 53/147/19
f 50/148/20 78/149/20 54/150/20
f 55/151/25 56/152/25 76/153/25
f 52/154/26 68/155/27 66/156/28
f 76/157/19 56/158/19 57/159/19
f 62/160/20 55/161/20 58/162/20
f 51/163/29 69/164/29 64/165/29
f 52/154/24 54/142/24 53/144/24
f 49/166/19 79/167/19 53/168/19
f 52/169/20 50/148/20 54/150/20
f 58/170/25 55/151/25 76/153/25
f 78/171/30 70/172/31 79/173/32
f 77/174/19 76/157/19 57/159/19
f 63/175/20 62/160/20 58/162/20
f 59/121/4 61/38/4 25/176/4
f 61/38/4 26/177/4 25/176/4
f 56/158/33 72/178/19 57/159/19
f 57/159/19 73/179/22 77/174/34
f 57/180/35 71/181/35 62/182/35
f 52/169/26 69/183/20 50/148/20
f 66/184/36 68/155/36 64/165/36
f 71/181/37 72/185/37 65/186/37
f 69/164/36 66/184/36 64/165/36
f 67/187/37 71/181/37 65/186/37
f 69/164/38 64/165/38 70/188/38
f 75/189/39 73/190/39 72/191/39
f 74/192/38 69/164/38 70/188/38
f 71/193/39 75/189/39 72/191/39
f 55/161/40 71/194/20 67/195/41
f 62/160/20 75/196/23 71/194/20
f 51/146/19 70/197/31 64/198/19
f 55/151/40 65/199/42 56/152/33
f 50/148/20 74/200/43 78/149/30
f 53/147/44 64/198/19 68/201/27
f 78/171/45 79/173/45 49/143/45
f 58/202/46 76/153/46 77/203/46
f 54/142/45 78/171/45 49/143/45
f 63/139/46 58/202/46 77/203/46
f 15/59/19 37/126/19 59/60/19
f 4/62/20 26/127/20 60/63/20
f 37/120/4 27/36/4 61/38/4
f 63/139/21 77/203/34 73/140/22
f 52/154/26 53/144/44 68/155/27
f 51/163/29 50/204/29 69/164/29
f 78/171/30 74/205/43 70/172/31
f 61/38/4 60/37/4 26/177/4
f 56/158/33 65/206/42 72/178/19
f 57/159/19 72/178/19 73/179/22
f 57/180/35 72/185/35 71/181/35
f 52/169/26 66/207/28 69/183/20
f 55/161/40 62/160/20 71/194/20
f 62/160/20 63/175/21 75/196/23
f 51/146/19 79/145/32 70/197/31
f 55/151/40 67/208/41 65/199/42
f 50/148/20 69/183/20 74/200/43
f 53/147/44 51/146/19 64/198/19
