# Blender v2.79 (sub 0) OBJ File: ''
# www.blender.org
mtllib collisionDetection.mtl
o Cube.007
v 10.000000 0.028362 0.100000
v -9.999996 0.028362 -0.100000
v 10.000000 0.028362 -0.100000
v -9.999999 2.028362 -0.100000
v 9.999993 2.028362 0.100000
v 10.000005 2.028362 -0.100000
v -10.000001 0.028362 0.100000
v -10.000004 2.028362 0.100000
vn 0.0000 -1.0000 -0.0000
vn 0.0000 1.0000 0.0000
vn 1.0000 0.0000 0.0001
vn 1.0000 -0.0000 0.0000
vn 0.0000 -0.0000 1.0000
vn -1.0000 -0.0000 -0.0000
vn 0.0000 0.0000 -1.0000
usemtl Material.009
s 1
f 1//1 2//1 3//1
f 4//2 5//2 6//2
f 6//3 1//4 3//4
f 5//5 7//5 1//5
f 7//6 4//6 2//6
f 3//7 4//7 6//7
f 1//1 7//1 2//1
f 4//2 8//2 5//2
f 6//3 5//3 1//4
f 5//5 8//5 7//5
f 7//6 8//6 4//6
f 3//7 2//7 4//7
