# Blender v2.79 (sub 0) OBJ File: ''
# www.blender.org
mtllib rightPaddle.mtl
o Cube_Cube.000
v -2.442719 1.026997 -5.096695
v -2.442719 -0.973003 -5.096695
v -2.442719 -0.973003 -4.598352
v -0.303348 0.848799 -5.025416
v -0.303348 -0.794805 -5.025416
v -0.303348 0.848799 -4.669632
v -0.303348 -0.794805 -4.669632
v -2.442719 1.026997 -4.598352
vt 0.191915 0.681653
vt 0.191915 1.000000
vt 0.000000 1.000000
vt 0.027450 0.000000
vt 0.280635 0.000000
vt 0.308085 0.681653
vt 0.191915 0.943271
vt 0.191915 0.681653
vt 0.328929 0.681653
vt 0.308085 0.000000
vt 0.616170 0.000000
vt 0.588720 0.681653
vt 0.616170 0.681653
vt 0.643620 0.000000
vt 0.780635 0.000000
vt 0.972550 0.000000
vt 1.000000 0.681653
vt 0.808085 0.681653
vt 0.000000 0.681653
vt 0.000000 0.681653
vt 0.328930 0.943271
vt 0.335535 0.681653
vt 0.808085 0.681653
vt 0.835535 0.000000
vn -1.0000 0.0000 0.0000
vn 0.0333 0.0000 -0.9994
vn 1.0000 0.0000 0.0000
vn 0.0333 -0.0000 0.9994
vn 0.0830 -0.9965 0.0000
vn 0.0830 0.9965 0.0000
usemtl Material.002
s 1
f 1/1/1 2/2/1 3/3/1
f 4/4/2 5/5/2 2/6/2
f 6/7/3 7/8/3 5/9/3
f 8/10/4 3/11/4 7/12/4
f 2/13/5 5/14/5 7/15/5
f 4/16/6 1/17/6 8/18/6
f 8/19/1 1/1/1 3/3/1
f 1/20/2 4/4/2 2/6/2
f 4/21/3 6/7/3 5/9/3
f 6/22/4 8/10/4 7/12/4
f 3/23/5 2/13/5 7/15/5
f 6/24/6 4/16/6 8/18/6
